# Free SolidWorks .OBJ Exporter v2.0
# num_vertices: 148 

mtllib rod_bas2.mtl

v 6.56030737921409E-03 2.65797985667433E-03 -0.009
v 0.0065 0.003 -0.009
v 0.0065 0.003 -0.006
v 0.007 2.13397459621556E-03 -0.009
v 6.56030737921409E-03 2.65797985667433E-03 -0.006
v 7.67364817766693E-03 2.01519224698779E-03 -0.009
v 0.007 2.13397459621556E-03 -0.006
v 0.008 2.13397459621556E-03 -0.009
v 7.67364817766693E-03 2.01519224698779E-03 -0.006
v 8.43969262078591E-03 2.65797985667433E-03 -0.009
v 0.008 2.13397459621556E-03 -0.006
v 8.43969262078591E-03 3.34202014332567E-03 -0.006
v 8.43969262078591E-03 3.34202014332567E-03 -0.009
v 0.0085 0.003 -0.009
v 8.43969262078591E-03 2.65797985667433E-03 -0.006
v 0.0085 0.003 -0.006
v 8.26604444311898E-03 3.64278760968654E-03 -0.009
v 0.008 3.86602540378444E-03 -0.009
v 8.26604444311898E-03 3.64278760968654E-03 -0.006
v 7.32635182233307E-03 3.98480775301221E-03 -0.009
v 0.008 3.86602540378444E-03 -0.006
v 6.73395555688102E-03 3.64278760968654E-03 -0.009
v 7.32635182233307E-03 3.98480775301221E-03 -0.006
v 6.73395555688102E-03 3.64278760968654E-03 -0.006
v 9.93731978045456E-03 3.55630233489079E-03 -0.006
v 8.43969262078591E-03 3.34202014332567E-03 -0.006
v 0.0085 0.003 -0.006
v 0.01 0.003 -0.006
v 9.75242216975605E-03 4.08470934779389E-03 -0.006
v 9.45457870617007E-03 4.55872450464683E-03 -0.006
v 8.26604444311898E-03 3.64278760968654E-03 -0.006
v 9.05872450464683E-03 4.95457870617007E-03 -0.006
v 0.008 3.86602540378444E-03 -0.006
v 7.32635182233307E-03 3.98480775301221E-03 -0.006
v 8.05630233489078E-03 5.43731978045456E-03 -0.006
v 0.0075 0.0055 -0.006
v 6.73395555688102E-03 3.64278760968654E-03 -0.006
v 6.4152906522061E-03 5.25242216975605E-03 -0.006
v 0.0065 0.003 -0.006
v 5.24757783024395E-03 4.08470934779389E-03 -0.006
v 8.58470934779389E-03 5.25242216975605E-03 -0.006
v 6.94369766510921E-03 5.43731978045456E-03 -0.006
v 5.06268021954544E-03 3.55630233489079E-03 -0.006
v 0.005 0.003 -0.006
v 0.005 -1.77651705215292E-18 -0.006
v 6.56030737921409E-03 2.65797985667433E-03 -0.006
v 5.94127549535316E-03 4.95457870617007E-03 -0.006
v 5.54542129382992E-03 4.55872450464683E-03 -0.006
v 0.007 2.13397459621556E-03 -0.006
v 0.01 -8.58035451264105E-19 -0.006
v 7.67364817766693E-03 2.01519224698779E-03 -0.006
v 8.43969262078591E-03 2.65797985667433E-03 -0.006
v 0.008 2.13397459621556E-03 -0.006
v 9.93731978045456E-03 3.55630233489079E-03 -0.009
v 0.01 0.003 -0.009
v 0.0085 0.003 -0.009
v 8.43969262078591E-03 3.34202014332567E-03 -0.009
v 9.75242216975605E-03 4.08470934779389E-03 -0.009
v 0.01 -8.58035451264105E-19 -0.009
v 8.43969262078591E-03 2.65797985667433E-03 -0.009
v 7.32635182233307E-03 3.98480775301221E-03 -0.009
v 0.0075 0.0055 -0.009
v 8.05630233489078E-03 5.43731978045456E-03 -0.009
v 9.05872450464683E-03 4.95457870617007E-03 -0.009
v 9.45457870617007E-03 4.55872450464683E-03 -0.009
v 8.26604444311898E-03 3.64278760968654E-03 -0.009
v 0.0065 0.003 -0.009
v 5.06268021954544E-03 3.55630233489079E-03 -0.009
v 5.24757783024395E-03 4.08470934779389E-03 -0.009
v 6.73395555688102E-03 3.64278760968654E-03 -0.009
v 5.94127549535316E-03 4.95457870617007E-03 -0.009
v 6.4152906522061E-03 5.25242216975605E-03 -0.009
v 6.94369766510921E-03 5.43731978045456E-03 -0.009
v 0.008 3.86602540378444E-03 -0.009
v 8.58470934779389E-03 5.25242216975605E-03 -0.009
v 0.005 0.003 -0.009
v 7.67364817766693E-03 2.01519224698779E-03 -0.009
v 0.008 2.13397459621556E-03 -0.009
v 0.005 -1.77651705215292E-18 -0.009
v 0.007 2.13397459621556E-03 -0.009
v 5.54542129382992E-03 4.55872450464683E-03 -0.009
v 6.56030737921409E-03 2.65797985667433E-03 -0.009
v 0.005 0.003 -0.009
v 0.005 0.003 -0.006
v 5.06268021954544E-03 3.55630233489079E-03 -0.006
v 5.06268021954544E-03 3.55630233489079E-03 -0.009
v 5.24757783024395E-03 4.08470934779389E-03 -0.006
v 5.24757783024395E-03 4.08470934779389E-03 -0.009
v 5.54542129382992E-03 4.55872450464683E-03 -0.006
v 5.54542129382992E-03 4.55872450464683E-03 -0.009
v 5.94127549535316E-03 4.95457870617007E-03 -0.006
v 5.94127549535316E-03 4.95457870617007E-03 -0.009
v 6.4152906522061E-03 5.25242216975605E-03 -0.006
v 6.4152906522061E-03 5.25242216975605E-03 -0.009
v 6.94369766510921E-03 5.43731978045456E-03 -0.006
v 6.94369766510921E-03 5.43731978045456E-03 -0.009
v 0.0075 0.0055 -0.006
v 0.0075 0.0055 -0.009
v 8.05630233489078E-03 5.43731978045456E-03 -0.006
v 8.05630233489078E-03 5.43731978045456E-03 -0.009
v 8.58470934779389E-03 5.25242216975605E-03 -0.006
v 8.58470934779389E-03 5.25242216975605E-03 -0.009
v 9.05872450464683E-03 4.95457870617007E-03 -0.006
v 9.05872450464683E-03 4.95457870617007E-03 -0.009
v 9.45457870617007E-03 4.55872450464683E-03 -0.006
v 9.45457870617007E-03 4.55872450464683E-03 -0.009
v 9.75242216975605E-03 4.08470934779389E-03 -0.006
v 9.75242216975605E-03 4.08470934779389E-03 -0.009
v 9.93731978045456E-03 3.55630233489079E-03 -0.006
v 9.93731978045456E-03 3.55630233489079E-03 -0.009
v 0.01 0.003 -0.006
v 0.01 0.003 -0.009
v 0.005 -1.77651705215292E-18 -0.006
v 0.005 0.003 -0.006
v 0.005 0.003 -0.009
v 0.005 -1.77651705215292E-18 -0.009
v 0.01 0.003 -0.006
v 0.01 -8.58035451264105E-19 -0.006
v 0.01 -8.58035451264105E-19 -0.009
v 0.01 0.003 -0.009
v 0 0 0
v 0.015 0 0
v 0.01 -8.58035451264105E-19 -0.006
v 0.015 0 -0.015
v 0.01 -8.58035451264105E-19 -0.009
v 5.20417042793042E-18 0 -0.015
v 0.005 -1.77651705215292E-18 -0.009
v 0.005 -1.77651705215292E-18 -0.006
v 0 0 0
v 5.20417042793042E-18 0 -0.015
v 5.20417042793042E-18 -0.01 -0.015
v 0 -0.01 0
v 5.20417042793042E-18 0 -0.015
v 0.015 0 -0.015
v 0.015 -0.01 -0.015
v 5.20417042793042E-18 -0.01 -0.015
v 0.015 0 -0.015
v 0.015 0 0
v 0.015 -0.01 0
v 0.015 -0.01 -0.015
v 0.015 0 0
v 0 0 0
v 0 -0.01 0
v 0.015 -0.01 0
v 0.015 -0.01 0
v 0 -0.01 0
v 5.20417042793042E-18 -0.01 -0.015
v 0.015 -0.01 -0.015
# 148 vertices

vn 0.939692620785908 0.342020143325669 -0
vn 1 2.44929359829471E-16 -0
vn 1 2.44929359829471E-16 -0
vn 0.499999999999999 0.866025403784439 -0
vn 0.939692620785908 0.342020143325669 -0
vn -0.173648177666931 0.984807753012208 -0
vn 0.499999999999999 0.866025403784439 -0
vn -0.500000000000001 0.866025403784438 -0
vn -0.173648177666931 0.984807753012208 -0
vn -0.939692620785909 0.342020143325668 -0
vn -0.500000000000001 0.866025403784438 -0
vn -0.939692620785908 -0.342020143325669 0
vn -0.939692620785908 -0.342020143325669 0
vn -1 -3.67394039744206E-16 0
vn -0.939692620785909 0.342020143325668 -0
vn -1 -3.67394039744206E-16 0
vn -0.766044443118978 -0.64278760968654 0
vn -0.5 -0.866025403784438 0
vn -0.766044443118978 -0.64278760968654 0
vn 0.173648177666931 -0.984807753012208 -0
vn -0.5 -0.866025403784438 0
vn 0.766044443118978 -0.642787609686539 -0
vn 0.173648177666931 -0.984807753012208 -0
vn 0.766044443118978 -0.642787609686539 -0
vn -0 0 1
vn -0 0 1
vn -0 0 1
vn -0 0 1
vn -0 0 1
vn -0 0 1
vn -0 0 1
vn -0 0 1
vn -0 0 1
vn -0 0 1
vn -0 0 1
vn -0 0 1
vn -0 0 1
vn -0 0 1
vn -0 0 1
vn -0 0 1
vn -0 0 1
vn -0 0 1
vn -0 0 1
vn -0 0 1
vn -0 0 1
vn -0 0 1
vn -0 0 1
vn -0 0 1
vn -0 0 1
vn -0 0 1
vn -0 0 1
vn -0 0 1
vn -0 0 1
vn 0 -0 -1
vn 0 -0 -1
vn 0 -0 -1
vn 0 -0 -1
vn 0 -0 -1
vn 0 -0 -1
vn 0 -0 -1
vn 0 -0 -1
vn 0 -0 -1
vn 0 -0 -1
vn 0 -0 -1
vn 0 -0 -1
vn 0 -0 -1
vn 0 -0 -1
vn 0 -0 -1
vn 0 -0 -1
vn 0 -0 -1
vn 0 -0 -1
vn 0 -0 -1
vn 0 -0 -1
vn 0 -0 -1
vn 0 -0 -1
vn 0 -0 -1
vn 0 -0 -1
vn 0 -0 -1
vn 0 -0 -1
vn 0 -0 -1
vn 0 -0 -1
vn 0 -0 -1
vn -1 0 0
vn -1 0 0
vn -0.974927912181824 0.222520933956314 0
vn -0.974927912181824 0.222520933956314 0
vn -0.900968867902419 0.433883739117558 0
vn -0.900968867902419 0.433883739117558 0
vn -0.78183148246803 0.623489801858733 0
vn -0.78183148246803 0.623489801858733 0
vn -0.623489801858734 0.781831482468029 0
vn -0.623489801858734 0.781831482468029 0
vn -0.433883739117558 0.900968867902419 0
vn -0.433883739117558 0.900968867902419 0
vn -0.222520933956315 0.974927912181824 0
vn -0.222520933956315 0.974927912181824 0
vn -6.12323399573677E-17 1 0
vn -6.12323399573677E-17 1 0
vn 0.222520933956314 0.974927912181824 -0
vn 0.222520933956314 0.974927912181824 -0
vn 0.433883739117558 0.900968867902419 -0
vn 0.433883739117558 0.900968867902419 -0
vn 0.623489801858733 0.78183148246803 -0
vn 0.623489801858733 0.78183148246803 -0
vn 0.78183148246803 0.623489801858734 -0
vn 0.78183148246803 0.623489801858734 -0
vn 0.900968867902419 0.433883739117558 -0
vn 0.900968867902419 0.433883739117558 -0
vn 0.974927912181824 0.222520933956315 -0
vn 0.974927912181824 0.222520933956315 -0
vn 1 1.22464679914735E-16 -0
vn 1 1.22464679914735E-16 -0
vn -1 -2.89120579329468E-16 0
vn -1 -2.89120579329468E-16 0
vn -1 -2.89120579329468E-16 0
vn -1 -2.89120579329468E-16 0
vn 1 1.22464679914735E-16 -0
vn 1 1.22464679914735E-16 -0
vn 1 1.22464679914735E-16 -0
vn 1 1.22464679914735E-16 -0
vn -0 1 -0
vn -0 1 -0
vn -0 1 -0
vn -0 1 -0
vn -0 1 -0
vn -0 1 -0
vn -0 1 -0
vn -0 1 -0
vn -1 -2.89120579329468E-16 0
vn -1 -2.89120579329468E-16 0
vn -1 -2.89120579329468E-16 0
vn -1 -2.89120579329468E-16 0
vn 0 -0 -1
vn 0 -0 -1
vn 0 -0 -1
vn 0 -0 -1
vn 1 -0 3.46944695195361E-16
vn 1 -0 3.46944695195361E-16
vn 1 -0 3.46944695195361E-16
vn 1 -0 3.46944695195361E-16
vn -0 -0 1
vn -0 -0 1
vn -0 -0 1
vn -0 -0 1
vn 0 -1 0
vn 0 -1 0
vn 0 -1 0
vn 0 -1 0
# 148 normals

vt -0.349065850398866 0.003
vt 0 0.003
vt 0 -0
vt 5.23598775598299 0.003
vt -0.349065850398866 -0
vt 4.53785605518526 0.003
vt 5.23598775598299 -0
vt 4.18879020478639 0.003
vt 4.53785605518526 -0
vt 3.49065850398866 0.003
vt 4.18879020478639 -0
vt 2.79252680319093 -0
vt 2.79252680319093 0.003
vt 3.14159265358979 0.003
vt 3.49065850398866 -0
vt 3.14159265358979 -0
vt 2.44346095279206 0.003
vt 2.0943951023932 0.003
vt 2.44346095279206 -0
vt 1.39626340159546 0.003
vt 2.0943951023932 -0
vt 0.698131700797732 0.003
vt 1.39626340159546 -0
vt 0.698131700797732 -0
vt 9.93731978045456E-03 3.55630233489079E-03
vt 8.43969262078591E-03 3.34202014332567E-03
vt 0.0085 0.003
vt 0.01 0.003
vt 9.75242216975605E-03 4.08470934779389E-03
vt 9.45457870617007E-03 4.55872450464683E-03
vt 8.26604444311898E-03 3.64278760968654E-03
vt 9.05872450464683E-03 4.95457870617007E-03
vt 0.008 3.86602540378444E-03
vt 7.32635182233307E-03 3.98480775301221E-03
vt 8.05630233489078E-03 5.43731978045456E-03
vt 0.0075 0.0055
vt 6.73395555688102E-03 3.64278760968654E-03
vt 6.4152906522061E-03 5.25242216975605E-03
vt 0.0065 0.003
vt 5.24757783024395E-03 4.08470934779389E-03
vt 8.58470934779389E-03 5.25242216975605E-03
vt 6.94369766510921E-03 5.43731978045456E-03
vt 5.06268021954544E-03 3.55630233489079E-03
vt 0.005 0.003
vt 0.005 -1.77651705215292E-18
vt 6.56030737921409E-03 2.65797985667433E-03
vt 5.94127549535316E-03 4.95457870617007E-03
vt 5.54542129382992E-03 4.55872450464683E-03
vt 0.007 2.13397459621556E-03
vt 0.01 -1.77651705215292E-18
vt 7.67364817766693E-03 2.01519224698779E-03
vt 8.43969262078591E-03 2.65797985667433E-03
vt 0.008 2.13397459621556E-03
vt 9.93731978045456E-03 3.55630233489079E-03
vt 0.01 0.003
vt 0.0085 0.003
vt 8.43969262078591E-03 3.34202014332567E-03
vt 9.75242216975605E-03 4.08470934779389E-03
vt 0.01 -1.77651705215292E-18
vt 8.43969262078591E-03 2.65797985667433E-03
vt 7.32635182233307E-03 3.98480775301221E-03
vt 0.0075 0.0055
vt 8.05630233489078E-03 5.43731978045456E-03
vt 9.05872450464683E-03 4.95457870617007E-03
vt 9.45457870617007E-03 4.55872450464683E-03
vt 8.26604444311898E-03 3.64278760968654E-03
vt 0.0065 0.003
vt 5.06268021954544E-03 3.55630233489079E-03
vt 5.24757783024395E-03 4.08470934779389E-03
vt 6.73395555688102E-03 3.64278760968654E-03
vt 5.94127549535316E-03 4.95457870617007E-03
vt 6.4152906522061E-03 5.25242216975605E-03
vt 6.94369766510921E-03 5.43731978045456E-03
vt 0.008 3.86602540378444E-03
vt 8.58470934779389E-03 5.25242216975605E-03
vt 0.005 0.003
vt 7.67364817766693E-03 2.01519224698779E-03
vt 0.008 2.13397459621556E-03
vt 0.005 -1.77651705215292E-18
vt 0.007 2.13397459621556E-03
vt 5.54542129382992E-03 4.55872450464683E-03
vt 6.56030737921409E-03 2.65797985667433E-03
vt 0 0.003
vt 0 -0
vt 0.224399475256414 -0
vt 0.224399475256414 0.003
vt 0.448798950512828 -0
vt 0.448798950512828 0.003
vt 0.673198425769241 -0
vt 0.673198425769241 0.003
vt 0.897597901025655 -0
vt 0.897597901025655 0.003
vt 1.12199737628207 -0
vt 1.12199737628207 0.003
vt 1.34639685153848 -0
vt 1.34639685153848 0.003
vt 1.5707963267949 -0
vt 1.5707963267949 0.003
vt 1.79519580205131 -0
vt 1.79519580205131 0.003
vt 2.01959527730772 -0
vt 2.01959527730772 0.003
vt 2.24399475256414 -0
vt 2.24399475256414 0.003
vt 2.46839422782055 -0
vt 2.46839422782055 0.003
vt 2.69279370307697 -0
vt 2.69279370307697 0.003
vt 2.91719317833338 -0
vt 2.91719317833338 0.003
vt 3.14159265358979 -0
vt 3.14159265358979 0.003
vt -3.22211994880026E-18 0
vt 0.003 0
vt 0.003 -0.003
vt -3.22211994880026E-18 -0.003
vt 0 0.003
vt 0 -8.58035451264105E-19
vt 0.003 -8.58035451264105E-19
vt 0.003 0.003
vt 0 0
vt 0 0.015
vt 0.006 0.01
vt 0.015 0.015
vt 0.009 0.01
vt 0.015 0
vt 0.009 0.005
vt 0.006 0.005
vt 0 0.01
vt 0.015 0.01
vt 0.015 0
vt 0 0
vt 0 0.01
vt 0.015 0.01
vt 0.015 0
vt 0 0
vt -0.015 0.01
vt 0 0.01
vt 0 0
vt -0.015 0
vt -0.015 0.01
vt 0 0.01
vt 0 0
vt -0.015 0
vt 0 0.015
vt 0 0
vt 0.015 0
vt 0.015 0.015
# 148 UVs

g  mesh 1 rod_bas2
usemtl  1 
f 131/131/131 129/129/129 130/130/130
f 129/129/129 131/131/131 132/132/132
f 133/133/133 135/135/135 136/136/136
f 135/135/135 133/133/133 134/134/134
f 139/139/139 137/137/137 138/138/138
f 137/137/137 139/139/139 140/140/140
f 143/143/143 141/141/141 142/142/142
f 141/141/141 143/143/143 144/144/144
f 147/147/147 145/145/145 146/146/146
f 145/145/145 147/147/147 148/148/148
f 125/125/125 122/122/122 124/124/124
f 122/122/122 125/125/125 123/123/123
f 125/125/125 126/126/126 127/127/127
f 126/126/126 125/125/125 124/124/124
f 128/128/128 126/126/126 121/121/121
f 126/126/126 128/128/128 127/127/127
f 121/121/121 123/123/123 128/128/128
f 123/123/123 121/121/121 122/122/122
f 83/83/83 85/85/85 86/86/86
f 86/86/86 87/87/87 88/88/88
f 85/85/85 83/83/83 84/84/84
f 87/87/87 86/86/86 85/85/85
f 89/89/89 88/88/88 87/87/87
f 91/91/91 90/90/90 89/89/89
f 93/93/93 92/92/92 91/91/91
f 95/95/95 94/94/94 93/93/93
f 97/97/97 96/96/96 95/95/95
f 99/99/99 98/98/98 97/97/97
f 101/101/101 100/100/100 99/99/99
f 103/103/103 102/102/102 101/101/101
f 105/105/105 104/104/104 103/103/103
f 107/107/107 106/106/106 105/105/105
f 109/109/109 108/108/108 107/107/107
f 111/111/111 110/110/110 109/109/109
f 110/110/110 111/111/111 112/112/112
f 108/108/108 109/109/109 110/110/110
f 106/106/106 107/107/107 108/108/108
f 104/104/104 105/105/105 106/106/106
f 102/102/102 103/103/103 104/104/104
f 100/100/100 101/101/101 102/102/102
f 98/98/98 99/99/99 100/100/100
f 96/96/96 97/97/97 98/98/98
f 88/88/88 89/89/89 90/90/90
f 92/92/92 93/93/93 94/94/94
f 90/90/90 91/91/91 92/92/92
f 94/94/94 95/95/95 96/96/96
f 115/115/115 113/113/113 114/114/114
f 113/113/113 115/115/115 116/116/116
f 10/10/10 11/11/11 15/15/15
f 8/8/8 9/9/9 11/11/11
f 6/6/6 7/7/7 9/9/9
f 4/4/4 5/5/5 7/7/7
f 12/12/12 14/14/14 16/16/16
f 1/1/1 3/3/3 5/5/5
f 17/17/17 12/12/12 19/19/19
f 18/18/18 19/19/19 21/21/21
f 20/20/20 21/21/21 23/23/23
f 22/22/22 23/23/23 24/24/24
f 2/2/2 24/24/24 3/3/3
f 24/24/24 2/2/2 22/22/22
f 23/23/23 22/22/22 20/20/20
f 21/21/21 20/20/20 18/18/18
f 19/19/19 18/18/18 17/17/17
f 12/12/12 17/17/17 13/13/13
f 10/10/10 16/16/16 14/14/14
f 16/16/16 10/10/10 15/15/15
f 14/14/14 12/12/12 13/13/13
f 11/11/11 10/10/10 8/8/8
f 9/9/9 8/8/8 6/6/6
f 7/7/7 6/6/6 4/4/4
f 5/5/5 4/4/4 1/1/1
f 3/3/3 1/1/1 2/2/2
f 119/119/119 117/117/117 118/118/118
f 117/117/117 119/119/119 120/120/120
f 45/45/45 51/51/51 49/49/49
f 28/28/28 52/52/52 50/50/50
f 39/39/39 43/43/43 44/44/44
f 52/52/52 28/28/28 27/27/27
f 50/50/50 53/53/53 51/51/51
f 44/44/44 46/46/46 39/39/39
f 27/27/27 25/25/25 26/26/26
f 25/25/25 27/27/27 28/28/28
f 31/31/31 29/29/29 30/30/30
f 31/31/31 32/32/32 33/33/33
f 35/35/35 34/34/34 33/33/33
f 29/29/29 31/31/31 26/26/26
f 32/32/32 31/31/31 30/30/30
f 34/34/34 35/35/35 36/36/36
f 38/38/38 37/37/37 34/34/34
f 40/40/40 39/39/39 37/37/37
f 33/33/33 32/32/32 41/41/41
f 35/35/35 33/33/33 41/41/41
f 38/38/38 34/34/34 42/42/42
f 39/39/39 40/40/40 43/43/43
f 46/46/46 44/44/44 45/45/45
f 34/34/34 36/36/36 42/42/42
f 37/37/37 38/38/38 47/47/47
f 40/40/40 37/37/37 48/48/48
f 46/46/46 45/45/45 49/49/49
f 51/51/51 45/45/45 50/50/50
f 53/53/53 50/50/50 52/52/52
f 37/37/37 47/47/47 48/48/48
f 26/26/26 25/25/25 29/29/29
f 74/74/74 63/63/63 75/75/75
f 76/76/76 82/82/82 79/79/79
f 79/79/79 82/82/82 80/80/80
f 70/70/70 69/69/69 81/81/81
f 82/82/82 76/76/76 67/67/67
f 59/59/59 78/78/78 60/60/60
f 56/56/56 54/54/54 55/55/55
f 54/54/54 57/57/57 58/58/58
f 60/60/60 55/55/55 59/59/59
f 63/63/63 61/61/61 62/62/62
f 66/66/66 64/64/64 65/65/65
f 66/66/66 58/58/58 57/57/57
f 55/55/55 60/60/60 56/56/56
f 69/69/69 67/67/67 68/68/68
f 72/72/72 70/70/70 71/71/71
f 62/62/62 61/61/61 73/73/73
f 64/64/64 74/74/74 75/75/75
f 54/54/54 56/56/56 57/57/57
f 68/68/68 67/67/67 76/76/76
f 70/70/70 72/72/72 61/61/61
f 61/61/61 63/63/63 74/74/74
f 58/58/58 66/66/66 65/65/65
f 78/78/78 59/59/59 77/77/77
f 77/77/77 79/79/79 80/80/80
f 67/67/67 69/69/69 70/70/70
f 71/71/71 70/70/70 81/81/81
f 64/64/64 66/66/66 74/74/74
f 79/79/79 77/77/77 59/59/59
f 61/61/61 72/72/72 73/73/73

