# Free SolidWorks .OBJ Exporter v2.0
# num_vertices: 82 

mtllib Pin2.mtl

v 0 0.015 0
v 9.18485099360515E-19 0.015 0.0025
v 2.24098272258583E-04 0.015 2.4899357349881E-03
v 1.08470934779389E-03 0.015 2.25242216975605E-03
v 1.80698715956848E-03 0.015 1.72765662246716E-03
v 2.08643313430326E-03 0.015 1.37724245363026E-03
v 2.43731978045456E-03 0.015 5.56302334890786E-04
v 2.47737440441984E-03 0.015 -3.35583164544138E-04
v 2.20148882964185E-03 0.015 -1.1846716561825E-03
v 1.64484681484928E-03 0.015 -1.88267866500903E-03
v 8.78437060203357E-04 0.015 -2.34058717659934E-03
v 0 0.015 -0.0025
v -4.46392236996592E-04 0.015 -2.45982397149657E-03
v -1.28224819351477E-03 0.015 -2.14612198400467E-03
v -1.95457870617007E-03 0.015 -1.55872450464683E-03
v -2.37764129073788E-03 0.015 -7.72542485937368E-04
v -2.49748266635329E-03 0.015 1.12162075876288E-04
v -2.29881943137863E-03 0.015 9.8256257913481E-04
v -2.08643313430326E-03 0.015 1.37724245363026E-03
v -1.46946313073118E-03 0.015 2.02254248593737E-03
v -6.65092113916687E-04 0.015 2.40990715173963E-03
v 0 0 -0.0025
v 0 0.015 -0.0025
v 8.78437060203357E-04 0.015 -2.34058717659934E-03
v 8.78437060203357E-04 0 -2.34058717659934E-03
v 1.64484681484928E-03 0.015 -1.88267866500903E-03
v 1.64484681484928E-03 0 -1.88267866500903E-03
v 2.20148882964185E-03 0.015 -1.1846716561825E-03
v 2.20148882964185E-03 0 -1.1846716561825E-03
v 2.47737440441984E-03 0.015 -3.35583164544138E-04
v 2.47737440441984E-03 0 -3.35583164544138E-04
v 2.43731978045456E-03 0.015 5.56302334890786E-04
v 2.43731978045456E-03 0 5.56302334890786E-04
v 2.08643313430326E-03 0.015 1.37724245363026E-03
v 2.08643313430326E-03 0 1.37724245363026E-03
v 1.80698715956848E-03 0.015 1.72765662246716E-03
v 1.80698715956848E-03 0 1.72765662246716E-03
v 1.08470934779389E-03 0.015 2.25242216975605E-03
v 1.08470934779389E-03 0 2.25242216975605E-03
v 2.24098272258583E-04 0.015 2.4899357349881E-03
v -6.65092113916687E-04 0 2.40990715173963E-03
v 3.06161699786838E-19 0 0.0025
v 9.18485099360515E-19 0.015 0.0025
v 2.24098272258583E-04 0 2.4899357349881E-03
v -6.65092113916687E-04 0.015 2.40990715173963E-03
v -1.46946313073118E-03 0.015 2.02254248593737E-03
v -1.46946313073118E-03 0 2.02254248593737E-03
v -2.08643313430326E-03 0.015 1.37724245363026E-03
v -2.08643313430326E-03 0 1.37724245363026E-03
v -2.29881943137863E-03 0.015 9.8256257913481E-04
v -2.29881943137863E-03 0 9.8256257913481E-04
v -2.49748266635329E-03 0.015 1.12162075876288E-04
v -2.49748266635329E-03 0 1.12162075876288E-04
v -2.37764129073788E-03 0.015 -7.72542485937368E-04
v -2.37764129073788E-03 0 -7.72542485937368E-04
v -1.95457870617007E-03 0.015 -1.55872450464683E-03
v -1.95457870617007E-03 0 -1.55872450464683E-03
v -1.28224819351477E-03 0.015 -2.14612198400467E-03
v -1.28224819351477E-03 0 -2.14612198400467E-03
v -4.46392236996592E-04 0.015 -2.45982397149657E-03
v -4.46392236996592E-04 0 -2.45982397149657E-03
v 0 0 0
v 3.06161699786838E-19 0 0.0025
v -6.65092113916687E-04 0 2.40990715173963E-03
v -1.46946313073118E-03 0 2.02254248593737E-03
v -2.08643313430326E-03 0 1.37724245363026E-03
v -2.29881943137863E-03 0 9.8256257913481E-04
v -2.49748266635329E-03 0 1.12162075876288E-04
v -2.37764129073788E-03 0 -7.72542485937368E-04
v -1.95457870617007E-03 0 -1.55872450464683E-03
v -1.28224819351477E-03 0 -2.14612198400467E-03
v -4.46392236996592E-04 0 -2.45982397149657E-03
v 0 0 -0.0025
v 8.78437060203357E-04 0 -2.34058717659934E-03
v 1.64484681484928E-03 0 -1.88267866500903E-03
v 2.20148882964185E-03 0 -1.1846716561825E-03
v 2.47737440441984E-03 0 -3.35583164544138E-04
v 2.43731978045456E-03 0 5.56302334890786E-04
v 2.08643313430326E-03 0 1.37724245363026E-03
v 1.80698715956848E-03 0 1.72765662246716E-03
v 1.08470934779389E-03 0 2.25242216975605E-03
v 2.24098272258583E-04 0 2.4899357349881E-03
# 82 vertices

vn 0 1 0
vn 0 1 0
vn 0 1 0
vn 0 1 0
vn 0 1 0
vn 0 1 0
vn 0 1 0
vn 0 1 0
vn 0 1 0
vn 0 1 0
vn 0 1 0
vn 0 1 0
vn 0 1 0
vn 0 1 0
vn 0 1 0
vn 0 1 0
vn 0 1 0
vn 0 1 0
vn 0 1 0
vn 0 1 0
vn 0 1 0
vn 0 0 -1
vn 0 0 -1
vn 0.351374824081343 0 -0.936234870639737
vn 0.351374824081343 0 -0.936234870639737
vn 0.657938725939713 0 -0.753071466003611
vn 0.657938725939713 0 -0.753071466003611
vn 0.880595531856738 0 -0.473868662472998
vn 0.880595531856738 0 -0.473868662472998
vn 0.990949761767935 0 -0.134233265817655
vn 0.990949761767935 0 -0.134233265817655
vn 0.974927912181824 -0 0.222520933956315
vn 0.974927912181824 -0 0.222520933956315
vn 0.834573253721302 -0 0.550896981452103
vn 0.834573253721302 -0 0.550896981452103
vn 0.722794863827391 -0 0.691062648986865
vn 0.722794863827391 -0 0.691062648986865
vn 0.433883739117558 -0 0.900968867902419
vn 0.433883739117558 -0 0.900968867902419
vn 8.96393089034332E-02 -0 0.995974293995239
vn -0.266036845566675 0 0.963962860695853
vn 1.22464679914735E-16 -0 1
vn 1.22464679914735E-16 -0 1
vn 8.96393089034332E-02 -0 0.995974293995239
vn -0.266036845566675 0 0.963962860695853
vn -0.587785252292473 0 0.809016994374947
vn -0.587785252292473 0 0.809016994374947
vn -0.834573253721303 0 0.550896981452103
vn -0.834573253721303 0 0.550896981452103
vn -0.919527772551451 0 0.393025031653924
vn -0.919527772551451 0 0.393025031653924
vn -0.998993066541315 0 4.48648303505151E-02
vn -0.998993066541315 0 4.48648303505151E-02
vn -0.951056516295154 0 -0.309016994374947
vn -0.951056516295154 0 -0.309016994374947
vn -0.78183148246803 0 -0.623489801858733
vn -0.78183148246803 0 -0.623489801858733
vn -0.512899277405906 0 -0.858448793601866
vn -0.512899277405906 0 -0.858448793601866
vn -0.178556894798637 0 -0.98392958859863
vn -0.178556894798637 0 -0.98392958859863
vn -0 -1 -0
vn -0 -1 -0
vn -0 -1 -0
vn -0 -1 -0
vn -0 -1 -0
vn -0 -1 -0
vn -0 -1 -0
vn -0 -1 -0
vn -0 -1 -0
vn -0 -1 -0
vn -0 -1 -0
vn -0 -1 -0
vn -0 -1 -0
vn -0 -1 -0
vn -0 -1 -0
vn -0 -1 -0
vn -0 -1 -0
vn -0 -1 -0
vn -0 -1 -0
vn -0 -1 -0
vn -0 -1 -0
# 82 normals

vt 0 0
vt 0.0025 3.06161699786838E-19
vt 2.4899357349881E-03 2.24098272258583E-04
vt 2.25242216975605E-03 1.08470934779389E-03
vt 1.72765662246716E-03 1.80698715956848E-03
vt 1.37724245363026E-03 2.08643313430326E-03
vt 5.56302334890786E-04 2.43731978045456E-03
vt -3.35583164544138E-04 2.47737440441984E-03
vt -1.1846716561825E-03 2.20148882964185E-03
vt -1.88267866500903E-03 1.64484681484928E-03
vt -2.34058717659934E-03 8.78437060203357E-04
vt -0.0025 0
vt -2.45982397149657E-03 -4.46392236996592E-04
vt -2.14612198400467E-03 -1.28224819351477E-03
vt -1.55872450464683E-03 -1.95457870617007E-03
vt -7.72542485937368E-04 -2.37764129073788E-03
vt 1.12162075876288E-04 -2.49748266635329E-03
vt 9.8256257913481E-04 -2.29881943137863E-03
vt 1.37724245363026E-03 -2.08643313430326E-03
vt 2.02254248593737E-03 -1.46946313073118E-03
vt 2.40990715173963E-03 -6.65092113916687E-04
vt 6.28318530717959 0.015
vt 6.28318530717959 -0
vt 6.64222446758985 -0
vt 6.64222446758985 0.015
vt 0.718078320820524 -0
vt 0.718078320820524 0.015
vt 1.07711748123079 -0
vt 1.07711748123079 0.015
vt 1.43615664164105 -0
vt 1.43615664164105 0.015
vt 1.79519580205131 -0
vt 1.79519580205131 0.015
vt 2.15423496246157 -0
vt 2.15423496246157 0.015
vt 2.3337545426667 -0
vt 2.3337545426667 0.015
vt 2.69279370307697 -0
vt 2.69279370307697 0.015
vt 3.05183286348723 -0
vt 3.41087202389749 0.015
vt 3.14159265358979 0.015
vt 3.14159265358979 -0
vt 3.05183286348723 0.015
vt 3.41087202389749 -0
vt 3.76991118430775 -0
vt 3.76991118430775 0.015
vt 4.12895034471801 -0
vt 4.12895034471801 0.015
vt 4.30846992492314 -0
vt 4.30846992492314 0.015
vt 4.66750908533341 -0
vt 4.66750908533341 0.015
vt 5.02654824574367 -0
vt 5.02654824574367 0.015
vt 5.38558740615393 -0
vt 5.38558740615393 0.015
vt 5.74462656656419 -0
vt 5.74462656656419 0.015
vt 6.10366572697446 -0
vt 6.10366572697446 0.015
vt 0 0
vt 0.0025 9.18485099360515E-19
vt 2.40990715173963E-03 -6.65092113916687E-04
vt 2.02254248593737E-03 -1.46946313073118E-03
vt 1.37724245363026E-03 -2.08643313430326E-03
vt 9.8256257913481E-04 -2.29881943137863E-03
vt 1.12162075876288E-04 -2.49748266635329E-03
vt -7.72542485937368E-04 -2.37764129073788E-03
vt -1.55872450464683E-03 -1.95457870617007E-03
vt -2.14612198400467E-03 -1.28224819351477E-03
vt -2.45982397149657E-03 -4.46392236996592E-04
vt -0.0025 0
vt -2.34058717659934E-03 8.78437060203357E-04
vt -1.88267866500903E-03 1.64484681484928E-03
vt -1.1846716561825E-03 2.20148882964185E-03
vt -3.35583164544138E-04 2.47737440441984E-03
vt 5.56302334890786E-04 2.43731978045456E-03
vt 1.37724245363026E-03 2.08643313430326E-03
vt 1.72765662246716E-03 1.80698715956848E-03
vt 2.25242216975605E-03 1.08470934779389E-03
vt 2.4899357349881E-03 2.24098272258583E-04
# 82 UVs

g  mesh 1 Pin2
usemtl  1 
f 60/60/60 59/59/59 58/58/58
f 61/61/61 23/23/23 22/22/22
f 59/59/59 60/60/60 61/61/61
f 57/57/57 58/58/58 59/59/59
f 55/55/55 56/56/56 57/57/57
f 53/53/53 54/54/54 55/55/55
f 51/51/51 52/52/52 53/53/53
f 49/49/49 50/50/50 51/51/51
f 47/47/47 48/48/48 49/49/49
f 41/41/41 46/46/46 47/47/47
f 41/41/41 43/43/43 45/45/45
f 39/39/39 40/40/40 44/44/44
f 37/37/37 38/38/38 39/39/39
f 35/35/35 36/36/36 37/37/37
f 33/33/33 34/34/34 35/35/35
f 31/31/31 32/32/32 33/33/33
f 29/29/29 30/30/30 31/31/31
f 27/27/27 28/28/28 29/29/29
f 25/25/25 26/26/26 27/27/27
f 22/22/22 24/24/24 25/25/25
f 58/58/58 57/57/57 56/56/56
f 56/56/56 55/55/55 54/54/54
f 54/54/54 53/53/53 52/52/52
f 52/52/52 51/51/51 50/50/50
f 50/50/50 49/49/49 48/48/48
f 48/48/48 47/47/47 46/46/46
f 46/46/46 41/41/41 45/45/45
f 40/40/40 42/42/42 44/44/44
f 42/42/42 40/40/40 43/43/43
f 43/43/43 41/41/41 42/42/42
f 40/40/40 39/39/39 38/38/38
f 38/38/38 37/37/37 36/36/36
f 36/36/36 35/35/35 34/34/34
f 34/34/34 33/33/33 32/32/32
f 32/32/32 31/31/31 30/30/30
f 30/30/30 29/29/29 28/28/28
f 28/28/28 27/27/27 26/26/26
f 26/26/26 25/25/25 24/24/24
f 24/24/24 22/22/22 23/23/23
f 23/23/23 61/61/61 60/60/60
f 1/1/1 20/20/20 21/21/21
f 1/1/1 19/19/19 20/20/20
f 1/1/1 18/18/18 19/19/19
f 1/1/1 17/17/17 18/18/18
f 1/1/1 16/16/16 17/17/17
f 1/1/1 15/15/15 16/16/16
f 1/1/1 14/14/14 15/15/15
f 1/1/1 13/13/13 14/14/14
f 1/1/1 12/12/12 13/13/13
f 1/1/1 11/11/11 12/12/12
f 1/1/1 10/10/10 11/11/11
f 1/1/1 9/9/9 10/10/10
f 1/1/1 8/8/8 9/9/9
f 1/1/1 7/7/7 8/8/8
f 1/1/1 6/6/6 7/7/7
f 1/1/1 5/5/5 6/6/6
f 1/1/1 4/4/4 5/5/5
f 1/1/1 3/3/3 4/4/4
f 1/1/1 21/21/21 2/2/2
f 3/3/3 1/1/1 2/2/2
f 62/62/62 82/82/82 63/63/63
f 62/62/62 64/64/64 65/65/65
f 62/62/62 65/65/65 66/66/66
f 62/62/62 66/66/66 67/67/67
f 62/62/62 67/67/67 68/68/68
f 62/62/62 68/68/68 69/69/69
f 62/62/62 69/69/69 70/70/70
f 62/62/62 70/70/70 71/71/71
f 62/62/62 71/71/71 72/72/72
f 62/62/62 72/72/72 73/73/73
f 62/62/62 73/73/73 74/74/74
f 62/62/62 74/74/74 75/75/75
f 62/62/62 75/75/75 76/76/76
f 62/62/62 76/76/76 77/77/77
f 62/62/62 77/77/77 78/78/78
f 62/62/62 78/78/78 79/79/79
f 62/62/62 79/79/79 80/80/80
f 62/62/62 80/80/80 81/81/81
f 62/62/62 81/81/81 82/82/82
f 64/64/64 62/62/62 63/63/63

