# Free SolidWorks .OBJ Exporter v2.0
# num_vertices: 168 

mtllib beam_base1.mtl

v 0.01 0.01 -0.01
v 0.01 0.01 0.01
v 0.01 0 0.01
v 0.01 0 -0.01
v -0.01 0.01 -0.01
v 0.01 0.01 -0.01
v 0.01 0 -0.01
v -0.01 0 -0.01
v -0.01 0.01 0.01
v -0.01 0.01 -0.01
v -0.01 0 -0.01
v -0.01 0 0.01
v 0.01 0.01 0.01
v -0.01 0.01 0.01
v -0.01 0 0.01
v 0.01 0 0.01
v 0.01 0.01 -0.01
v -0.01 0.01 -0.01
v -0.01 0.01 0.01
v 0.01 0.01 0.01
v 0.01 0 0.01
v -0.01 0 0.01
v -0.005 -3.06161699786838E-19 0.005
v -0.01 0 -0.01
v -0.005 3.06161699786838E-19 -0.005
v 0.01 0 -0.01
v 0.005 3.06161699786838E-19 -0.005
v 0.005 -3.06161699786838E-19 0.005
v 0.005 3.06161699786838E-19 -0.005
v 0.005 -3.06161699786838E-19 0.005
v 0.005 -0.03 0.005
v 0.005 -0.03 -0.005
v -0.005 -3.06161699786838E-19 0.005
v -0.005 3.06161699786838E-19 -0.005
v -0.005 -0.03 -0.005
v -0.005 -0.03 0.005
v -7.7254248593738E-04 -3.53776412907379E-02 0.005
v 7.72542485937357E-04 -3.53776412907379E-02 0.005
v 1.46946313073117E-03 -3.50225424859374E-02 0.005
v -1.1474736622133E-17 -0.0355 0.005
v 2.02254248593736E-03 -3.44694631307312E-02 0.005
v -2.02254248593738E-03 -3.44694631307312E-02 0.005
v -1.46946313073119E-03 -3.50225424859374E-02 0.005
v 2.37764129073787E-03 -3.37725424859374E-02 0.005
v -2.50000000000001E-03 -0.033 0.005
v -2.3776412907379E-03 -3.37725424859374E-02 0.005
v 0.0025 -0.033 0.005
v 0.0025 -0.03 0.005
v -0.0025 -0.03 0.005
v 0.005 -3.06161699786838E-19 0.005
v -0.005 -3.06161699786838E-19 0.005
v -0.005 -0.03 0.005
v 0.005 -0.03 0.005
v 0.0025 -0.03 0.003
v 0.0025 -0.03 0.005
v 0.0025 -0.033 0.005
v 0.0025 -0.033 0.003
v 7.72542485937357E-04 -3.53776412907379E-02 0.003
v -7.7254248593738E-04 -3.53776412907379E-02 0.003
v -1.46946313073119E-03 -3.50225424859374E-02 0.003
v -1.18216813173283E-17 -0.0355 0.003
v -2.02254248593738E-03 -3.44694631307312E-02 0.003
v 2.02254248593736E-03 -3.44694631307312E-02 0.003
v 1.46946313073117E-03 -3.50225424859374E-02 0.003
v -2.3776412907379E-03 -3.37725424859374E-02 0.003
v -0.0025 -0.033 0.003
v 0.0025 -0.033 0.003
v 2.37764129073787E-03 -3.37725424859374E-02 0.003
v 0.0025 -0.03 0.003
v -0.0025 -0.03 0.003
v -0.0025 -0.03 0.005
v -0.0025 -0.03 0.003
v -0.0025 -0.033 0.003
v -2.50000000000001E-03 -0.033 0.005
v -2.50000000000001E-03 -0.033 0.005
v -0.0025 -0.033 0.003
v -2.3776412907379E-03 -3.37725424859374E-02 0.003
v -2.3776412907379E-03 -3.37725424859374E-02 0.005
v -2.02254248593738E-03 -3.44694631307312E-02 0.003
v -2.02254248593738E-03 -3.44694631307312E-02 0.005
v -1.46946313073119E-03 -3.50225424859374E-02 0.003
v -1.46946313073119E-03 -3.50225424859374E-02 0.005
v -7.7254248593738E-04 -3.53776412907379E-02 0.003
v -7.7254248593738E-04 -3.53776412907379E-02 0.005
v -1.18216813173283E-17 -0.0355 0.003
v -1.1474736622133E-17 -0.0355 0.005
v 7.72542485937357E-04 -3.53776412907379E-02 0.003
v 7.72542485937357E-04 -3.53776412907379E-02 0.005
v 1.46946313073117E-03 -3.50225424859374E-02 0.003
v 1.46946313073117E-03 -3.50225424859374E-02 0.005
v 2.02254248593736E-03 -3.44694631307312E-02 0.003
v 2.02254248593736E-03 -3.44694631307312E-02 0.005
v 2.37764129073787E-03 -3.37725424859374E-02 0.003
v 2.37764129073787E-03 -3.37725424859374E-02 0.005
v 0.0025 -0.033 0.003
v 0.0025 -0.033 0.005
v 0.005 -0.03 -0.005
v 0.0025 -0.03 0.003
v 0.0025 -0.03 -0.003
v -0.0025 -0.03 -0.003
v -0.0025 -0.03 0.003
v -0.005 -0.03 -0.005
v -0.0025 -0.03 -0.005
v -0.005 -0.03 0.005
v 0.0025 -0.03 -0.005
v 0.005 -0.03 0.005
v 0.0025 -0.03 0.005
v -0.0025 -0.03 0.005
v 7.72542485937358E-04 -3.53776412907379E-02 -0.005
v -7.72542485937379E-04 -3.53776412907379E-02 -0.005
v -1.46946313073119E-03 -3.50225424859374E-02 -0.005
v -1.05562515227725E-17 -0.0355 -0.005
v -2.02254248593738E-03 -3.44694631307312E-02 -0.005
v 2.02254248593736E-03 -3.44694631307312E-02 -0.005
v 1.46946313073117E-03 -3.50225424859374E-02 -0.005
v 2.49999999999999E-03 -0.033 -0.005
v 2.37764129073787E-03 -3.37725424859374E-02 -0.005
v -2.37764129073789E-03 -3.37725424859374E-02 -0.005
v -0.0025 -0.03 -0.005
v 0.0025 -0.03 -0.005
v -0.0025 -0.033 -0.005
v 0.005 3.06161699786838E-19 -0.005
v 0.005 -0.03 -0.005
v -0.005 3.06161699786838E-19 -0.005
v -0.005 -0.03 -0.005
v 0.0025 -0.03 -0.005
v 0.0025 -0.03 -0.003
v 0.0025 -0.033 -0.003
v 2.49999999999999E-03 -0.033 -0.005
v -7.7254248593738E-04 -3.53776412907379E-02 -0.003
v 7.72542485937357E-04 -3.53776412907379E-02 -0.003
v 1.46946313073117E-03 -3.50225424859374E-02 -0.003
v -1.09031962179678E-17 -0.0355 -0.003
v 2.02254248593736E-03 -3.44694631307312E-02 -0.003
v -2.02254248593738E-03 -3.44694631307312E-02 -0.003
v -1.46946313073119E-03 -3.50225424859374E-02 -0.003
v 2.37764129073787E-03 -3.37725424859374E-02 -0.003
v -0.0025 -0.033 -0.003
v -2.3776412907379E-03 -3.37725424859374E-02 -0.003
v -0.0025 -0.03 -0.003
v 0.0025 -0.033 -0.003
v 0.0025 -0.03 -0.003
v -0.0025 -0.03 -0.003
v -0.0025 -0.03 -0.005
v -0.0025 -0.033 -0.005
v -0.0025 -0.033 -0.003
v 2.49999999999999E-03 -0.033 -0.005
v 0.0025 -0.033 -0.003
v 2.37764129073787E-03 -3.37725424859374E-02 -0.003
v 2.37764129073787E-03 -3.37725424859374E-02 -0.005
v 2.02254248593736E-03 -3.44694631307312E-02 -0.003
v 2.02254248593736E-03 -3.44694631307312E-02 -0.005
v 1.46946313073117E-03 -3.50225424859374E-02 -0.003
v 1.46946313073117E-03 -3.50225424859374E-02 -0.005
v 7.72542485937357E-04 -3.53776412907379E-02 -0.003
v 7.72542485937358E-04 -3.53776412907379E-02 -0.005
v -1.09031962179678E-17 -0.0355 -0.003
v -1.05562515227725E-17 -0.0355 -0.005
v -7.7254248593738E-04 -3.53776412907379E-02 -0.003
v -7.72542485937379E-04 -3.53776412907379E-02 -0.005
v -1.46946313073119E-03 -3.50225424859374E-02 -0.003
v -1.46946313073119E-03 -3.50225424859374E-02 -0.005
v -2.02254248593738E-03 -3.44694631307312E-02 -0.003
v -2.02254248593738E-03 -3.44694631307312E-02 -0.005
v -2.3776412907379E-03 -3.37725424859374E-02 -0.003
v -2.37764129073789E-03 -3.37725424859374E-02 -0.005
v -0.0025 -0.033 -0.003
v -0.0025 -0.033 -0.005
# 168 vertices

vn 1 -0 -1.73472347597681E-16
vn 1 -0 -1.73472347597681E-16
vn 1 -0 -1.73472347597681E-16
vn 1 -0 -1.73472347597681E-16
vn -0 -0 -1
vn -0 -0 -1
vn -0 -0 -1
vn -0 -0 -1
vn -1 -0 -0
vn -1 -0 -0
vn -1 -0 -0
vn -1 -0 -0
vn -0 -0 1
vn -0 -0 1
vn -0 -0 1
vn -0 -0 1
vn 0 1 0
vn 0 1 0
vn 0 1 0
vn 0 1 0
vn -0 -1 -0
vn -0 -1 -0
vn -0 -1 -0
vn -0 -1 -0
vn -0 -1 -0
vn -0 -1 -0
vn -0 -1 -0
vn -0 -1 -0
vn 1 -0 0
vn 1 -0 0
vn 1 -0 0
vn 1 -0 0
vn -1 -0 -0
vn -1 -0 -0
vn -1 -0 -0
vn -1 -0 -0
vn -1.73472347597681E-16 -6.12323399573677E-17 1
vn -1.73472347597681E-16 -6.12323399573677E-17 1
vn -1.73472347597681E-16 -6.12323399573677E-17 1
vn -1.73472347597681E-16 -6.12323399573677E-17 1
vn -1.73472347597681E-16 -6.12323399573677E-17 1
vn -1.73472347597681E-16 -6.12323399573677E-17 1
vn -1.73472347597681E-16 -6.12323399573677E-17 1
vn -1.73472347597681E-16 -6.12323399573677E-17 1
vn -1.73472347597681E-16 -6.12323399573677E-17 1
vn -1.73472347597681E-16 -6.12323399573677E-17 1
vn -1.73472347597681E-16 -6.12323399573677E-17 1
vn -1.73472347597681E-16 -6.12323399573677E-17 1
vn -1.73472347597681E-16 -6.12323399573677E-17 1
vn -1.73472347597681E-16 -6.12323399573677E-17 1
vn -1.73472347597681E-16 -6.12323399573677E-17 1
vn -1.73472347597681E-16 -6.12323399573677E-17 1
vn -1.73472347597681E-16 -6.12323399573677E-17 1
vn 1 -2.55628263638919E-32 4.33680868994202E-16
vn 1 -2.55628263638919E-32 4.33680868994202E-16
vn 1 -2.55628263638919E-32 4.33680868994202E-16
vn 1 -2.55628263638919E-32 4.33680868994202E-16
vn 1.73472347597681E-16 6.12323399573677E-17 -1
vn 1.73472347597681E-16 6.12323399573677E-17 -1
vn 1.73472347597681E-16 6.12323399573677E-17 -1
vn 1.73472347597681E-16 6.12323399573677E-17 -1
vn 1.73472347597681E-16 6.12323399573677E-17 -1
vn 1.73472347597681E-16 6.12323399573677E-17 -1
vn 1.73472347597681E-16 6.12323399573677E-17 -1
vn 1.73472347597681E-16 6.12323399573677E-17 -1
vn 1.73472347597681E-16 6.12323399573677E-17 -1
vn 1.73472347597681E-16 6.12323399573677E-17 -1
vn 1.73472347597681E-16 6.12323399573677E-17 -1
vn 1.73472347597681E-16 6.12323399573677E-17 -1
vn 1.73472347597681E-16 6.12323399573677E-17 -1
vn -1 2.55628263638919E-32 -4.33680868994202E-16
vn -1 2.55628263638919E-32 -4.33680868994202E-16
vn -1 2.55628263638919E-32 -4.33680868994202E-16
vn -1 2.55628263638919E-32 -4.33680868994202E-16
vn -1 2.55628263638919E-32 -4.33680868994202E-16
vn -1 2.55628263638919E-32 -4.33680868994202E-16
vn -0.951056516295154 -0.309016994374947 1.83903840231963E-16
vn -0.951056516295154 -0.309016994374947 1.83903840231963E-16
vn -0.809016994374948 -0.587785252292472 1.76333543650942E-16
vn -0.809016994374948 -0.587785252292472 1.76333543650942E-16
vn -0.587785252292473 -0.809016994374947 1.51502491229325E-16
vn -0.587785252292473 -0.809016994374947 1.51502491229325E-16
vn -0.309016994374948 -0.951056516295154 1.11841319386256E-16
vn -0.309016994374948 -0.951056516295154 1.11841319386256E-16
vn -1.83697019872103E-16 -1 6.12323399573676E-17
vn -1.83697019872103E-16 -1 6.12323399573676E-17
vn 0.309016994374947 -0.951056516295154 4.6295124626532E-18
vn 0.309016994374947 -0.951056516295154 4.6295124626532E-18
vn 0.587785252292473 -0.809016994374948 -5.24264839676158E-17
vn 0.587785252292473 -0.809016994374948 -5.24264839676158E-17
vn 0.809016994374948 -0.587785252292473 -1.04350610870342E-16
vn 0.809016994374948 -0.587785252292473 -1.04350610870342E-16
vn 0.951056516295154 -0.309016994374948 -1.46060172927621E-16
vn 0.951056516295154 -0.309016994374948 -1.46060172927621E-16
vn 1 -2.44929359829471E-16 -1.73472347597681E-16
vn 1 -2.44929359829471E-16 -1.73472347597681E-16
vn 9.92468039367657E-34 -1 -6.12323399573677E-17
vn 9.92468039367657E-34 -1 -6.12323399573677E-17
vn 9.92468039367657E-34 -1 -6.12323399573677E-17
vn 9.92468039367657E-34 -1 -6.12323399573677E-17
vn 9.92468039367657E-34 -1 -6.12323399573677E-17
vn 9.92468039367657E-34 -1 -6.12323399573677E-17
vn 9.92468039367657E-34 -1 -6.12323399573677E-17
vn 9.92468039367657E-34 -1 -6.12323399573677E-17
vn 9.92468039367657E-34 -1 -6.12323399573677E-17
vn 9.92468039367657E-34 -1 -6.12323399573677E-17
vn 9.92468039367657E-34 -1 -6.12323399573677E-17
vn 9.92468039367657E-34 -1 -6.12323399573677E-17
vn 1.73472347597681E-16 6.12323399573677E-17 -1
vn 1.73472347597681E-16 6.12323399573677E-17 -1
vn 1.73472347597681E-16 6.12323399573677E-17 -1
vn 1.73472347597681E-16 6.12323399573677E-17 -1
vn 1.73472347597681E-16 6.12323399573677E-17 -1
vn 1.73472347597681E-16 6.12323399573677E-17 -1
vn 1.73472347597681E-16 6.12323399573677E-17 -1
vn 1.73472347597681E-16 6.12323399573677E-17 -1
vn 1.73472347597681E-16 6.12323399573677E-17 -1
vn 1.73472347597681E-16 6.12323399573677E-17 -1
vn 1.73472347597681E-16 6.12323399573677E-17 -1
vn 1.73472347597681E-16 6.12323399573677E-17 -1
vn 1.73472347597681E-16 6.12323399573677E-17 -1
vn 1.73472347597681E-16 6.12323399573677E-17 -1
vn 1.73472347597681E-16 6.12323399573677E-17 -1
vn 1.73472347597681E-16 6.12323399573677E-17 -1
vn 1.73472347597681E-16 6.12323399573677E-17 -1
vn 1 1.42701152409975E-32 -2.16840434497101E-16
vn 1 1.42701152409975E-32 -2.16840434497101E-16
vn 1 1.42701152409975E-32 -2.16840434497101E-16
vn 1 1.42701152409975E-32 -2.16840434497101E-16
vn -1.73472347597681E-16 -6.12323399573677E-17 1
vn -1.73472347597681E-16 -6.12323399573677E-17 1
vn -1.73472347597681E-16 -6.12323399573677E-17 1
vn -1.73472347597681E-16 -6.12323399573677E-17 1
vn -1.73472347597681E-16 -6.12323399573677E-17 1
vn -1.73472347597681E-16 -6.12323399573677E-17 1
vn -1.73472347597681E-16 -6.12323399573677E-17 1
vn -1.73472347597681E-16 -6.12323399573677E-17 1
vn -1.73472347597681E-16 -6.12323399573677E-17 1
vn -1.73472347597681E-16 -6.12323399573677E-17 1
vn -1.73472347597681E-16 -6.12323399573677E-17 1
vn -1.73472347597681E-16 -6.12323399573677E-17 1
vn -1.73472347597681E-16 -6.12323399573677E-17 1
vn -1 -1.42701152409975E-32 2.16840434497101E-16
vn -1 -1.42701152409975E-32 2.16840434497101E-16
vn -1 -1.42701152409975E-32 2.16840434497101E-16
vn -1 -1.42701152409975E-32 2.16840434497101E-16
vn 1 1.22464679914735E-16 1.73472347597681E-16
vn 1 1.22464679914735E-16 1.73472347597681E-16
vn 0.951056516295154 -0.309016994374947 1.46060172927621E-16
vn 0.951056516295154 -0.309016994374947 1.46060172927621E-16
vn 0.809016994374948 -0.587785252292472 1.04350610870342E-16
vn 0.809016994374948 -0.587785252292472 1.04350610870342E-16
vn 0.587785252292473 -0.809016994374947 5.24264839676158E-17
vn 0.587785252292473 -0.809016994374947 5.24264839676158E-17
vn 0.309016994374948 -0.951056516295154 -4.62951246265314E-18
vn 0.309016994374948 -0.951056516295154 -4.62951246265314E-18
vn 1.83697019872103E-16 -1 -6.12323399573676E-17
vn 1.83697019872103E-16 -1 -6.12323399573676E-17
vn -0.309016994374947 -0.951056516295154 -1.11841319386256E-16
vn -0.309016994374947 -0.951056516295154 -1.11841319386256E-16
vn -0.587785252292473 -0.809016994374948 -1.51502491229325E-16
vn -0.587785252292473 -0.809016994374948 -1.51502491229325E-16
vn -0.809016994374948 -0.587785252292473 -1.76333543650942E-16
vn -0.809016994374948 -0.587785252292473 -1.76333543650942E-16
vn -0.951056516295154 -0.309016994374948 -1.83903840231963E-16
vn -0.951056516295154 -0.309016994374948 -1.83903840231963E-16
vn -1 -2.44929359829471E-16 -1.73472347597681E-16
vn -1 -2.44929359829471E-16 -1.73472347597681E-16
# 168 normals

vt 0 0
vt 0.02 0
vt 0.02 -0.01
vt 0 -0.01
vt 0 0
vt 0.02 0
vt 0.02 -0.01
vt 0 -0.01
vt -0.02 0
vt 0 0
vt 0 -0.01
vt -0.02 -0.01
vt -0.02 0
vt 0 0
vt 0 -0.01
vt -0.02 -0.01
vt -0.01 0.01
vt -0.01 -0.01
vt 0.01 -0.01
vt 0.01 0.01
vt 0.01 0.01
vt 0.01 -0.01
vt 0.005 -0.005
vt -0.01 -0.01
vt -0.005 -0.005
vt -0.01 0.01
vt -0.005 0.005
vt 0.005 0.005
vt -0.01 0.03
vt 0 0.03
vt 0 0
vt -0.01 0
vt 0 0.03
vt 0.01 0.03
vt 0.01 0
vt 0 0
vt -4.22745751406262E-03 -5.37764129073789E-03
vt -5.77254248593736E-03 -5.37764129073789E-03
vt -6.46946313073117E-03 -5.02254248593737E-03
vt -4.99999999999999E-03 -0.0055
vt -7.02254248593736E-03 -4.46946313073118E-03
vt -2.97745751406262E-03 -4.46946313073118E-03
vt -3.53053686926881E-03 -5.02254248593737E-03
vt -7.37764129073787E-03 -3.77254248593737E-03
vt -2.49999999999999E-03 -0.003
vt -2.6223587092621E-03 -3.77254248593737E-03
vt -0.0075 -0.003
vt -0.0075 0
vt -0.0025 -2.65552944032596E-35
vt -0.01 0.03
vt 0 0.03
vt 0 -2.65552944032596E-35
vt -0.01 0
vt 0 0.003
vt 0.002 0.003
vt 0.002 0
vt 0 0
vt 3.27254248593736E-03 -2.37764129073788E-03
vt 1.72745751406262E-03 -2.37764129073788E-03
vt 1.03053686926881E-03 -2.02254248593737E-03
vt 2.49999999999999E-03 -0.0025
vt 4.77457514062619E-04 -1.46946313073118E-03
vt 4.52254248593736E-03 -1.46946313073118E-03
vt 3.96946313073117E-03 -2.02254248593737E-03
vt 1.22358709262104E-04 -7.72542485937368E-04
vt 0 0
vt 4.99999999999999E-03 1.28292706084425E-49
vt 4.87764129073787E-03 -7.72542485937368E-04
vt 0.005 0.003
vt -1.12757025938492E-17 0.003
vt -0.002 0.003
vt 0 0.003
vt 0 0
vt -0.002 0
vt 3.14159265358979 0.002
vt 3.14159265358979 -4.336808689942E-19
vt 3.45575191894877 -4.336808689942E-19
vt 3.45575191894877 0.002
vt 3.76991118430775 -4.336808689942E-19
vt 3.76991118430775 0.002
vt 4.08407044966673 -4.336808689942E-19
vt 4.08407044966673 0.002
vt 4.39822971502571 -4.336808689942E-19
vt 4.39822971502571 0.002
vt 4.71238898038469 -4.336808689942E-19
vt 4.71238898038469 0.002
vt 5.02654824574367 -4.336808689942E-19
vt 5.02654824574367 0.002
vt 5.34070751110265 -4.336808689942E-19
vt 5.34070751110265 0.002
vt 5.65486677646163 -4.336808689942E-19
vt 5.65486677646163 0.002
vt 5.96902604182061 -4.336808689942E-19
vt 5.96902604182061 0.002
vt 6.28318530717959 -4.336808689942E-19
vt 6.28318530717959 0.002
vt 0.005 0.005
vt -0.003 0.0025
vt 0.003 0.0025
vt 0.003 -0.0025
vt -0.003 -0.0025
vt 0.005 -0.005
vt 0.005 -0.0025
vt -0.005 -0.005
vt 0.005 0.0025
vt -0.005 0.005
vt -0.005 0.0025
vt -0.005 -0.0025
vt 5.77254248593736E-03 -5.37764129073789E-03
vt 4.22745751406262E-03 -5.37764129073789E-03
vt 3.53053686926881E-03 -5.02254248593737E-03
vt 4.99999999999999E-03 -0.0055
vt 2.97745751406262E-03 -4.46946313073118E-03
vt 7.02254248593736E-03 -4.46946313073118E-03
vt 6.46946313073117E-03 -5.02254248593737E-03
vt 7.49999999999999E-03 -0.003
vt 7.37764129073787E-03 -3.77254248593737E-03
vt 2.6223587092621E-03 -3.77254248593737E-03
vt 0.0025 0
vt 0.0075 2.65552944032596E-35
vt 0.0025 -0.003
vt 0.01 0.03
vt 0.01 2.65552944032596E-35
vt 0 0.03
vt 0 0
vt -0.002 0.003
vt 0 0.003
vt 0 0
vt -0.002 0
vt -1.72745751406262E-03 -2.37764129073788E-03
vt -3.27254248593736E-03 -2.37764129073788E-03
vt -3.96946313073117E-03 -2.02254248593737E-03
vt -2.49999999999999E-03 -0.0025
vt -4.52254248593736E-03 -1.46946313073118E-03
vt -4.77457514062619E-04 -1.46946313073118E-03
vt -1.03053686926881E-03 -2.02254248593737E-03
vt -4.87764129073787E-03 -7.72542485937368E-04
vt 1.21430643318376E-17 1.28985059315868E-49
vt -1.22358709262104E-04 -7.72542485937368E-04
vt 1.21430643318376E-17 0.003
vt -0.005 0
vt -0.005 0.003
vt 0 0.003
vt 0.002 0.003
vt 0.002 0
vt 0 0
vt 3.14159265358979 0.002
vt 3.14159265358979 4.33680868994204E-19
vt 3.45575191894877 4.33680868994204E-19
vt 3.45575191894877 0.002
vt 3.76991118430775 4.33680868994204E-19
vt 3.76991118430775 0.002
vt 4.08407044966673 4.33680868994204E-19
vt 4.08407044966673 0.002
vt 4.39822971502571 4.33680868994204E-19
vt 4.39822971502571 0.002
vt 4.71238898038469 4.33680868994204E-19
vt 4.71238898038469 0.002
vt 5.02654824574367 4.33680868994204E-19
vt 5.02654824574367 0.002
vt 5.34070751110265 4.33680868994204E-19
vt 5.34070751110265 0.002
vt 5.65486677646163 4.33680868994204E-19
vt 5.65486677646163 0.002
vt 5.96902604182061 4.33680868994204E-19
vt 5.96902604182061 0.002
vt 6.28318530717959 4.33680868994204E-19
vt 6.28318530717959 0.002
# 168 UVs

g  mesh 1 beam_base1
usemtl  1 
f 101/101/101 104/104/104 102/102/102
f 104/104/104 101/101/101 108/108/108
f 98/98/98 100/100/100 99/99/99
f 106/106/106 98/98/98 97/97/97
f 98/98/98 106/106/106 107/107/107
f 97/97/97 99/99/99 105/105/105
f 102/102/102 100/100/100 101/101/101
f 100/100/100 98/98/98 101/101/101
f 100/100/100 102/102/102 103/103/103
f 99/99/99 97/97/97 98/98/98
f 21/21/21 27/27/27 26/26/26
f 21/21/21 23/23/23 28/28/28
f 26/26/26 25/25/25 24/24/24
f 27/27/27 21/21/21 28/28/28
f 25/25/25 26/26/26 27/27/27
f 22/22/22 25/25/25 23/23/23
f 25/25/25 22/22/22 24/24/24
f 23/23/23 21/21/21 22/22/22
f 3/3/3 1/1/1 2/2/2
f 1/1/1 3/3/3 4/4/4
f 7/7/7 5/5/5 6/6/6
f 5/5/5 7/7/7 8/8/8
f 11/11/11 9/9/9 10/10/10
f 9/9/9 11/11/11 12/12/12
f 15/15/15 13/13/13 14/14/14
f 13/13/13 15/15/15 16/16/16
f 19/19/19 17/17/17 18/18/18
f 17/17/17 19/19/19 20/20/20
f 31/31/31 29/29/29 30/30/30
f 29/29/29 31/31/31 32/32/32
f 46/46/46 44/44/44 45/45/45
f 44/44/44 46/46/46 42/42/42
f 42/42/42 41/41/41 44/44/44
f 49/49/49 47/47/47 48/48/48
f 43/43/43 41/41/41 42/42/42
f 47/47/47 49/49/49 45/45/45
f 45/45/45 44/44/44 47/47/47
f 49/49/49 51/51/51 52/52/52
f 51/51/51 49/49/49 50/50/50
f 50/50/50 48/48/48 53/53/53
f 48/48/48 50/50/50 49/49/49
f 38/38/38 37/37/37 40/40/40
f 39/39/39 37/37/37 38/38/38
f 41/41/41 43/43/43 37/37/37
f 37/37/37 39/39/39 41/41/41
f 33/33/33 35/35/35 36/36/36
f 35/35/35 33/33/33 34/34/34
f 110/110/110 109/109/109 112/112/112
f 115/115/115 113/113/113 114/114/114
f 113/113/113 115/115/115 109/109/109
f 117/117/117 113/113/113 116/116/116
f 118/118/118 116/116/116 113/113/113
f 113/113/113 117/117/117 114/114/114
f 116/116/116 119/119/119 120/120/120
f 109/109/109 111/111/111 113/113/113
f 116/116/116 118/118/118 121/121/121
f 120/120/120 122/122/122 123/123/123
f 119/119/119 124/124/124 122/122/122
f 122/122/122 120/120/120 119/119/119
f 119/119/119 116/116/116 121/121/121
f 124/124/124 119/119/119 125/125/125
f 111/111/111 109/109/109 110/110/110
f 126/126/126 128/128/128 129/129/129
f 128/128/128 126/126/126 127/127/127
f 134/134/134 136/136/136 130/130/130
f 138/138/138 137/137/137 141/141/141
f 140/140/140 141/141/141 142/142/142
f 141/141/141 140/140/140 138/138/138
f 135/135/135 134/134/134 137/137/137
f 137/137/137 139/139/139 135/135/135
f 139/139/139 137/137/137 138/138/138
f 130/130/130 132/132/132 134/134/134
f 132/132/132 130/130/130 131/131/131
f 136/136/136 134/134/134 135/135/135
f 131/131/131 130/130/130 133/133/133
f 145/145/145 143/143/143 144/144/144
f 143/143/143 145/145/145 146/146/146
f 62/62/62 64/64/64 58/58/58
f 59/59/59 58/58/58 61/61/61
f 64/64/64 62/62/62 63/63/63
f 65/65/65 63/63/63 62/62/62
f 58/58/58 60/60/60 62/62/62
f 68/68/68 66/66/66 67/67/67
f 66/66/66 69/69/69 67/67/67
f 66/66/66 68/68/68 63/63/63
f 63/63/63 65/65/65 66/66/66
f 69/69/69 66/66/66 70/70/70
f 60/60/60 58/58/58 59/59/59
f 54/54/54 56/56/56 57/57/57
f 56/56/56 54/54/54 55/55/55
f 71/71/71 73/73/73 74/74/74
f 73/73/73 71/71/71 72/72/72
f 153/153/153 152/152/152 151/151/151
f 151/151/151 150/150/150 149/149/149
f 149/149/149 147/147/147 148/148/148
f 154/154/154 155/155/155 156/156/156
f 155/155/155 154/154/154 153/153/153
f 157/157/157 156/156/156 155/155/155
f 147/147/147 149/149/149 150/150/150
f 159/159/159 158/158/158 157/157/157
f 161/161/161 160/160/160 159/159/159
f 163/163/163 162/162/162 161/161/161
f 165/165/165 164/164/164 163/163/163
f 167/167/167 166/166/166 165/165/165
f 166/166/166 167/167/167 168/168/168
f 164/164/164 165/165/165 166/166/166
f 162/162/162 163/163/163 164/164/164
f 160/160/160 161/161/161 162/162/162
f 152/152/152 153/153/153 154/154/154
f 156/156/156 157/157/157 158/158/158
f 150/150/150 151/151/151 152/152/152
f 158/158/158 159/159/159 160/160/160
f 75/75/75 77/77/77 78/78/78
f 78/78/78 79/79/79 80/80/80
f 80/80/80 81/81/81 82/82/82
f 82/82/82 83/83/83 84/84/84
f 84/84/84 85/85/85 86/86/86
f 88/88/88 89/89/89 90/90/90
f 90/90/90 91/91/91 92/92/92
f 92/92/92 93/93/93 94/94/94
f 94/94/94 95/95/95 96/96/96
f 95/95/95 94/94/94 93/93/93
f 93/93/93 92/92/92 91/91/91
f 91/91/91 90/90/90 89/89/89
f 89/89/89 88/88/88 87/87/87
f 87/87/87 86/86/86 85/85/85
f 85/85/85 84/84/84 83/83/83
f 83/83/83 82/82/82 81/81/81
f 81/81/81 80/80/80 79/79/79
f 79/79/79 78/78/78 77/77/77
f 77/77/77 75/75/75 76/76/76
f 86/86/86 87/87/87 88/88/88

