# Free SolidWorks .OBJ Exporter v2.0
# num_vertices: 146 

mtllib Shaft.mtl

v 0 0.035 0
v 2.20436423846524E-18 0.035 0.006
v 5.37835853420599E-04 0.035 5.97584576397144E-03
v 1.59622107340005E-03 0.035 5.78377716417512E-03
v 2.60330243470535E-03 0.035 5.40581320741452E-03
v 3.52671151375484E-03 0.035 4.85410196624969E-03
v 4.33676918296435E-03 0.035 4.14637589392119E-03
v 5.00743952232782E-03 0.035 3.30538188871262E-03
v 5.5171666353087E-03 0.035 2.35815018992354E-03
v 5.84956747309094E-03 0.035 1.33512560373789E-03
v 5.99395839924789E-03 0.035 2.69188982103091E-04
v 5.94569857060761E-03 0.035 -8.05399594905932E-04
v 5.70633909777092E-03 0.035 -1.85410196624968E-03
v 5.28357319114043E-03 0.035 -2.84321197483799E-03
v 4.69098889480818E-03 0.035 -3.7409388111524E-03
v 3.94763235563828E-03 0.035 -4.51842879602166E-03
v 3.07739566443544E-03 0.035 -5.1506927616112E-03
v 2.10824894448806E-03 0.035 -5.61740922383842E-03
v 1.07134136879182E-03 0.035 -5.90357753159178E-03
v 0 0.035 -0.006
v -1.07134136879182E-03 0.035 -5.90357753159178E-03
v -2.10824894448806E-03 0.035 -5.61740922383842E-03
v -3.07739566443544E-03 0.035 -5.1506927616112E-03
v -3.94763235563828E-03 0.035 -4.51842879602166E-03
v -4.69098889480818E-03 0.035 -3.7409388111524E-03
v -5.28357319114043E-03 0.035 -2.84321197483799E-03
v -5.70633909777092E-03 0.035 -1.85410196624968E-03
v -5.94569857060761E-03 0.035 -8.05399594905932E-04
v -5.99395839924789E-03 0.035 2.69188982103091E-04
v -5.84956747309094E-03 0.035 1.33512560373789E-03
v -5.5171666353087E-03 0.035 2.35815018992354E-03
v -5.00743952232782E-03 0.035 3.30538188871262E-03
v -4.33676918296435E-03 0.035 4.14637589392119E-03
v -3.52671151375484E-03 0.035 4.85410196624969E-03
v -2.60330243470535E-03 0.035 5.40581320741452E-03
v -1.59622107340005E-03 0.035 5.78377716417512E-03
v -5.378358534206E-04 0.035 5.97584576397144E-03
v 0 0 -0.006
v 0 0.035 -0.006
v 1.07134136879182E-03 0.035 -5.90357753159178E-03
v 1.07134136879182E-03 0 -5.90357753159178E-03
v 2.10824894448806E-03 0.035 -5.61740922383842E-03
v 2.10824894448806E-03 0 -5.61740922383842E-03
v 3.07739566443544E-03 0.035 -5.1506927616112E-03
v 3.07739566443544E-03 0 -5.1506927616112E-03
v 3.94763235563828E-03 0.035 -4.51842879602166E-03
v 3.94763235563828E-03 0 -4.51842879602166E-03
v 4.69098889480818E-03 0.035 -3.7409388111524E-03
v 4.69098889480818E-03 0 -3.7409388111524E-03
v 5.28357319114043E-03 0.035 -2.84321197483799E-03
v 5.28357319114043E-03 0 -2.84321197483799E-03
v 5.70633909777092E-03 0.035 -1.85410196624968E-03
v 5.70633909777092E-03 0 -1.85410196624968E-03
v 5.94569857060761E-03 0.035 -8.05399594905932E-04
v 5.94569857060761E-03 0 -8.05399594905932E-04
v 5.99395839924789E-03 0.035 2.69188982103091E-04
v 5.99395839924789E-03 0 2.69188982103091E-04
v 5.84956747309094E-03 0.035 1.33512560373789E-03
v 5.84956747309094E-03 0 1.33512560373789E-03
v 5.5171666353087E-03 0.035 2.35815018992354E-03
v 5.5171666353087E-03 0 2.35815018992354E-03
v 5.00743952232782E-03 0.035 3.30538188871262E-03
v 5.00743952232782E-03 0 3.30538188871262E-03
v 4.33676918296435E-03 0.035 4.14637589392119E-03
v 4.33676918296435E-03 0 4.14637589392119E-03
v 3.52671151375484E-03 0.035 4.85410196624969E-03
v 3.52671151375484E-03 0 4.85410196624969E-03
v 2.60330243470535E-03 0.035 5.40581320741452E-03
v 2.60330243470535E-03 0 5.40581320741452E-03
v 1.59622107340005E-03 0.035 5.78377716417512E-03
v 1.59622107340005E-03 0 5.78377716417512E-03
v 5.37835853420599E-04 0.035 5.97584576397144E-03
v -5.378358534206E-04 0 5.97584576397144E-03
v 7.34788079488412E-19 0 0.006
v 2.20436423846524E-18 0.035 0.006
v 5.37835853420599E-04 0 5.97584576397144E-03
v -5.378358534206E-04 0.035 5.97584576397144E-03
v -1.59622107340005E-03 0.035 5.78377716417512E-03
v -1.59622107340005E-03 0 5.78377716417512E-03
v -2.60330243470535E-03 0.035 5.40581320741452E-03
v -2.60330243470535E-03 0 5.40581320741452E-03
v -3.52671151375484E-03 0.035 4.85410196624969E-03
v -3.52671151375484E-03 0 4.85410196624969E-03
v -4.33676918296435E-03 0.035 4.14637589392119E-03
v -4.33676918296435E-03 0 4.14637589392119E-03
v -5.00743952232782E-03 0.035 3.30538188871262E-03
v -5.00743952232782E-03 0 3.30538188871262E-03
v -5.5171666353087E-03 0.035 2.35815018992354E-03
v -5.5171666353087E-03 0 2.35815018992354E-03
v -5.84956747309094E-03 0.035 1.33512560373789E-03
v -5.84956747309094E-03 0 1.33512560373789E-03
v -5.99395839924789E-03 0.035 2.69188982103091E-04
v -5.99395839924789E-03 0 2.69188982103091E-04
v -5.94569857060761E-03 0.035 -8.05399594905932E-04
v -5.94569857060761E-03 0 -8.05399594905932E-04
v -5.70633909777092E-03 0.035 -1.85410196624968E-03
v -5.70633909777092E-03 0 -1.85410196624968E-03
v -5.28357319114043E-03 0.035 -2.84321197483799E-03
v -5.28357319114043E-03 0 -2.84321197483799E-03
v -4.69098889480818E-03 0.035 -3.7409388111524E-03
v -4.69098889480818E-03 0 -3.7409388111524E-03
v -3.94763235563828E-03 0.035 -4.51842879602166E-03
v -3.94763235563828E-03 0 -4.51842879602166E-03
v -3.07739566443544E-03 0.035 -5.1506927616112E-03
v -3.07739566443544E-03 0 -5.1506927616112E-03
v -2.10824894448806E-03 0.035 -5.61740922383842E-03
v -2.10824894448806E-03 0 -5.61740922383842E-03
v -1.07134136879182E-03 0.035 -5.90357753159178E-03
v -1.07134136879182E-03 0 -5.90357753159178E-03
v 0 0 0
v 7.34788079488412E-19 0 0.006
v -5.378358534206E-04 0 5.97584576397144E-03
v -1.59622107340005E-03 0 5.78377716417512E-03
v -2.60330243470535E-03 0 5.40581320741452E-03
v -3.52671151375484E-03 0 4.85410196624969E-03
v -4.33676918296435E-03 0 4.14637589392119E-03
v -5.00743952232782E-03 0 3.30538188871262E-03
v -5.5171666353087E-03 0 2.35815018992354E-03
v -5.84956747309094E-03 0 1.33512560373789E-03
v -5.99395839924789E-03 0 2.69188982103091E-04
v -5.94569857060761E-03 0 -8.05399594905932E-04
v -5.70633909777092E-03 0 -1.85410196624968E-03
v -5.28357319114043E-03 0 -2.84321197483799E-03
v -4.69098889480818E-03 0 -3.7409388111524E-03
v -3.94763235563828E-03 0 -4.51842879602166E-03
v -3.07739566443544E-03 0 -5.1506927616112E-03
v -2.10824894448806E-03 0 -5.61740922383842E-03
v -1.07134136879182E-03 0 -5.90357753159178E-03
v 0 0 -0.006
v 1.07134136879182E-03 0 -5.90357753159178E-03
v 2.10824894448806E-03 0 -5.61740922383842E-03
v 3.07739566443544E-03 0 -5.1506927616112E-03
v 3.94763235563828E-03 0 -4.51842879602166E-03
v 4.69098889480818E-03 0 -3.7409388111524E-03
v 5.28357319114043E-03 0 -2.84321197483799E-03
v 5.70633909777092E-03 0 -1.85410196624968E-03
v 5.94569857060761E-03 0 -8.05399594905932E-04
v 5.99395839924789E-03 0 2.69188982103091E-04
v 5.84956747309094E-03 0 1.33512560373789E-03
v 5.5171666353087E-03 0 2.35815018992354E-03
v 5.00743952232782E-03 0 3.30538188871262E-03
v 4.33676918296435E-03 0 4.14637589392119E-03
v 3.52671151375484E-03 0 4.85410196624969E-03
v 2.60330243470535E-03 0 5.40581320741452E-03
v 1.59622107340005E-03 0 5.78377716417512E-03
v 5.37835853420599E-04 0 5.97584576397144E-03
# 146 vertices

vn 0 1 0
vn 0 1 0
vn 0 1 0
vn 0 1 0
vn 0 1 0
vn 0 1 0
vn 0 1 0
vn 0 1 0
vn 0 1 0
vn 0 1 0
vn 0 1 0
vn 0 1 0
vn 0 1 0
vn 0 1 0
vn 0 1 0
vn 0 1 0
vn 0 1 0
vn 0 1 0
vn 0 1 0
vn 0 1 0
vn 0 1 0
vn 0 1 0
vn 0 1 0
vn 0 1 0
vn 0 1 0
vn 0 1 0
vn 0 1 0
vn 0 1 0
vn 0 1 0
vn 0 1 0
vn 0 1 0
vn 0 1 0
vn 0 1 0
vn 0 1 0
vn 0 1 0
vn 0 1 0
vn 0 1 0
vn 0 0 -1
vn 0 0 -1
vn 0.178556894798637 0 -0.98392958859863
vn 0.178556894798637 0 -0.98392958859863
vn 0.351374824081343 0 -0.936234870639737
vn 0.351374824081343 0 -0.936234870639737
vn 0.512899277405906 0 -0.858448793601866
vn 0.512899277405906 0 -0.858448793601866
vn 0.657938725939713 0 -0.753071466003611
vn 0.657938725939713 0 -0.753071466003611
vn 0.78183148246803 0 -0.623489801858733
vn 0.78183148246803 0 -0.623489801858733
vn 0.880595531856738 0 -0.473868662472998
vn 0.880595531856738 0 -0.473868662472998
vn 0.951056516295154 0 -0.309016994374947
vn 0.951056516295154 0 -0.309016994374947
vn 0.990949761767935 0 -0.134233265817655
vn 0.990949761767935 0 -0.134233265817655
vn 0.998993066541315 -0 4.48648303505151E-02
vn 0.998993066541315 -0 4.48648303505151E-02
vn 0.974927912181824 -0 0.222520933956315
vn 0.974927912181824 -0 0.222520933956315
vn 0.919527772551451 -0 0.393025031653924
vn 0.919527772551451 -0 0.393025031653924
vn 0.834573253721302 -0 0.550896981452103
vn 0.834573253721302 -0 0.550896981452103
vn 0.722794863827391 -0 0.691062648986865
vn 0.722794863827391 -0 0.691062648986865
vn 0.587785252292473 -0 0.809016994374948
vn 0.587785252292473 -0 0.809016994374948
vn 0.433883739117558 -0 0.900968867902419
vn 0.433883739117558 -0 0.900968867902419
vn 0.266036845566675 -0 0.963962860695853
vn 0.266036845566675 -0 0.963962860695853
vn 8.96393089034332E-02 -0 0.995974293995239
vn -8.96393089034334E-02 0 0.995974293995239
vn 1.22464679914735E-16 -0 1
vn 1.22464679914735E-16 -0 1
vn 8.96393089034332E-02 -0 0.995974293995239
vn -8.96393089034334E-02 0 0.995974293995239
vn -0.266036845566675 0 0.963962860695853
vn -0.266036845566675 0 0.963962860695853
vn -0.433883739117558 0 0.900968867902419
vn -0.433883739117558 0 0.900968867902419
vn -0.587785252292473 0 0.809016994374948
vn -0.587785252292473 0 0.809016994374948
vn -0.722794863827392 0 0.691062648986864
vn -0.722794863827392 0 0.691062648986864
vn -0.834573253721303 0 0.550896981452103
vn -0.834573253721303 0 0.550896981452103
vn -0.919527772551451 0 0.393025031653924
vn -0.919527772551451 0 0.393025031653924
vn -0.974927912181824 0 0.222520933956315
vn -0.974927912181824 0 0.222520933956315
vn -0.998993066541315 0 4.48648303505151E-02
vn -0.998993066541315 0 4.48648303505151E-02
vn -0.990949761767935 0 -0.134233265817655
vn -0.990949761767935 0 -0.134233265817655
vn -0.951056516295154 0 -0.309016994374947
vn -0.951056516295154 0 -0.309016994374947
vn -0.880595531856738 0 -0.473868662472998
vn -0.880595531856738 0 -0.473868662472998
vn -0.78183148246803 0 -0.623489801858733
vn -0.78183148246803 0 -0.623489801858733
vn -0.657938725939713 0 -0.753071466003611
vn -0.657938725939713 0 -0.753071466003611
vn -0.512899277405906 0 -0.858448793601866
vn -0.512899277405906 0 -0.858448793601866
vn -0.351374824081343 0 -0.936234870639737
vn -0.351374824081343 0 -0.936234870639737
vn -0.178556894798637 0 -0.98392958859863
vn -0.178556894798637 0 -0.98392958859863
vn -0 -1 -0
vn -0 -1 -0
vn -0 -1 -0
vn -0 -1 -0
vn -0 -1 -0
vn -0 -1 -0
vn -0 -1 -0
vn -0 -1 -0
vn -0 -1 -0
vn -0 -1 -0
vn -0 -1 -0
vn -0 -1 -0
vn -0 -1 -0
vn -0 -1 -0
vn -0 -1 -0
vn -0 -1 -0
vn -0 -1 -0
vn -0 -1 -0
vn -0 -1 -0
vn -0 -1 -0
vn -0 -1 -0
vn -0 -1 -0
vn -0 -1 -0
vn -0 -1 -0
vn -0 -1 -0
vn -0 -1 -0
vn -0 -1 -0
vn -0 -1 -0
vn -0 -1 -0
vn -0 -1 -0
vn -0 -1 -0
vn -0 -1 -0
vn -0 -1 -0
vn -0 -1 -0
vn -0 -1 -0
vn -0 -1 -0
vn -0 -1 -0
# 146 normals

vt 0 0
vt 0.006 7.34788079488412E-19
vt 5.97584576397144E-03 5.37835853420599E-04
vt 5.78377716417512E-03 1.59622107340005E-03
vt 5.40581320741452E-03 2.60330243470535E-03
vt 4.85410196624969E-03 3.52671151375484E-03
vt 4.14637589392119E-03 4.33676918296435E-03
vt 3.30538188871262E-03 5.00743952232782E-03
vt 2.35815018992354E-03 5.5171666353087E-03
vt 1.33512560373789E-03 5.84956747309094E-03
vt 2.69188982103091E-04 5.99395839924789E-03
vt -8.05399594905932E-04 5.94569857060761E-03
vt -1.85410196624968E-03 5.70633909777092E-03
vt -2.84321197483799E-03 5.28357319114043E-03
vt -3.7409388111524E-03 4.69098889480818E-03
vt -4.51842879602166E-03 3.94763235563828E-03
vt -5.1506927616112E-03 3.07739566443544E-03
vt -5.61740922383842E-03 2.10824894448806E-03
vt -5.90357753159178E-03 1.07134136879182E-03
vt -0.006 0
vt -5.90357753159178E-03 -1.07134136879182E-03
vt -5.61740922383842E-03 -2.10824894448806E-03
vt -5.1506927616112E-03 -3.07739566443544E-03
vt -4.51842879602166E-03 -3.94763235563828E-03
vt -3.7409388111524E-03 -4.69098889480818E-03
vt -2.84321197483799E-03 -5.28357319114043E-03
vt -1.85410196624968E-03 -5.70633909777092E-03
vt -8.05399594905932E-04 -5.94569857060761E-03
vt 2.69188982103091E-04 -5.99395839924789E-03
vt 1.33512560373789E-03 -5.84956747309094E-03
vt 2.35815018992354E-03 -5.5171666353087E-03
vt 3.30538188871262E-03 -5.00743952232782E-03
vt 4.14637589392119E-03 -4.33676918296435E-03
vt 4.85410196624969E-03 -3.52671151375484E-03
vt 5.40581320741452E-03 -2.60330243470535E-03
vt 5.78377716417512E-03 -1.59622107340005E-03
vt 5.97584576397144E-03 -5.378358534206E-04
vt 6.28318530717959 0.035
vt 6.28318530717959 -0
vt 6.46270488738472 -0
vt 6.46270488738472 0.035
vt 0.359039160410262 -0
vt 0.359039160410262 0.035
vt 0.538558740615393 -0
vt 0.538558740615393 0.035
vt 0.718078320820524 -0
vt 0.718078320820524 0.035
vt 0.897597901025655 -0
vt 0.897597901025655 0.035
vt 1.07711748123079 -0
vt 1.07711748123079 0.035
vt 1.25663706143592 -0
vt 1.25663706143592 0.035
vt 1.43615664164105 -0
vt 1.43615664164105 0.035
vt 1.61567622184618 -0
vt 1.61567622184618 0.035
vt 1.79519580205131 -0
vt 1.79519580205131 0.035
vt 1.97471538225644 -0
vt 1.97471538225644 0.035
vt 2.15423496246157 -0
vt 2.15423496246157 0.035
vt 2.3337545426667 -0
vt 2.3337545426667 0.035
vt 2.51327412287183 -0
vt 2.51327412287183 0.035
vt 2.69279370307697 -0
vt 2.69279370307697 0.035
vt 2.8723132832821 -0
vt 2.8723132832821 0.035
vt 3.05183286348723 -0
vt 3.23135244369236 0.035
vt 3.14159265358979 0.035
vt 3.14159265358979 -0
vt 3.05183286348723 0.035
vt 3.23135244369236 -0
vt 3.41087202389749 -0
vt 3.41087202389749 0.035
vt 3.59039160410262 -0
vt 3.59039160410262 0.035
vt 3.76991118430775 -0
vt 3.76991118430775 0.035
vt 3.94943076451288 -0
vt 3.94943076451288 0.035
vt 4.12895034471801 -0
vt 4.12895034471801 0.035
vt 4.30846992492314 -0
vt 4.30846992492314 0.035
vt 4.48798950512828 -0
vt 4.48798950512828 0.035
vt 4.66750908533341 -0
vt 4.66750908533341 0.035
vt 4.84702866553854 -0
vt 4.84702866553854 0.035
vt 5.02654824574367 -0
vt 5.02654824574367 0.035
vt 5.2060678259488 -0
vt 5.2060678259488 0.035
vt 5.38558740615393 -0
vt 5.38558740615393 0.035
vt 5.56510698635906 -0
vt 5.56510698635906 0.035
vt 5.74462656656419 -0
vt 5.74462656656419 0.035
vt 5.92414614676932 -0
vt 5.92414614676932 0.035
vt 6.10366572697446 -0
vt 6.10366572697446 0.035
vt 0 0
vt 0.006 2.20436423846524E-18
vt 5.97584576397144E-03 -5.378358534206E-04
vt 5.78377716417512E-03 -1.59622107340005E-03
vt 5.40581320741452E-03 -2.60330243470535E-03
vt 4.85410196624969E-03 -3.52671151375484E-03
vt 4.14637589392119E-03 -4.33676918296435E-03
vt 3.30538188871262E-03 -5.00743952232782E-03
vt 2.35815018992354E-03 -5.5171666353087E-03
vt 1.33512560373789E-03 -5.84956747309094E-03
vt 2.69188982103091E-04 -5.99395839924789E-03
vt -8.05399594905932E-04 -5.94569857060761E-03
vt -1.85410196624968E-03 -5.70633909777092E-03
vt -2.84321197483799E-03 -5.28357319114043E-03
vt -3.7409388111524E-03 -4.69098889480818E-03
vt -4.51842879602166E-03 -3.94763235563828E-03
vt -5.1506927616112E-03 -3.07739566443544E-03
vt -5.61740922383842E-03 -2.10824894448806E-03
vt -5.90357753159178E-03 -1.07134136879182E-03
vt -0.006 0
vt -5.90357753159178E-03 1.07134136879182E-03
vt -5.61740922383842E-03 2.10824894448806E-03
vt -5.1506927616112E-03 3.07739566443544E-03
vt -4.51842879602166E-03 3.94763235563828E-03
vt -3.7409388111524E-03 4.69098889480818E-03
vt -2.84321197483799E-03 5.28357319114043E-03
vt -1.85410196624968E-03 5.70633909777092E-03
vt -8.05399594905932E-04 5.94569857060761E-03
vt 2.69188982103091E-04 5.99395839924789E-03
vt 1.33512560373789E-03 5.84956747309094E-03
vt 2.35815018992354E-03 5.5171666353087E-03
vt 3.30538188871262E-03 5.00743952232782E-03
vt 4.14637589392119E-03 4.33676918296435E-03
vt 4.85410196624969E-03 3.52671151375484E-03
vt 5.40581320741452E-03 2.60330243470535E-03
vt 5.78377716417512E-03 1.59622107340005E-03
vt 5.97584576397144E-03 5.37835853420599E-04
# 146 UVs

g  mesh 1 Shaft
usemtl  1 
f 108/108/108 107/107/107 106/106/106
f 109/109/109 39/39/39 38/38/38
f 107/107/107 108/108/108 109/109/109
f 105/105/105 106/106/106 107/107/107
f 103/103/103 104/104/104 105/105/105
f 101/101/101 102/102/102 103/103/103
f 99/99/99 100/100/100 101/101/101
f 97/97/97 98/98/98 99/99/99
f 95/95/95 96/96/96 97/97/97
f 93/93/93 94/94/94 95/95/95
f 91/91/91 92/92/92 93/93/93
f 89/89/89 90/90/90 91/91/91
f 87/87/87 88/88/88 89/89/89
f 85/85/85 86/86/86 87/87/87
f 83/83/83 84/84/84 85/85/85
f 81/81/81 82/82/82 83/83/83
f 79/79/79 80/80/80 81/81/81
f 73/73/73 78/78/78 79/79/79
f 73/73/73 75/75/75 77/77/77
f 71/71/71 72/72/72 76/76/76
f 69/69/69 70/70/70 71/71/71
f 67/67/67 68/68/68 69/69/69
f 65/65/65 66/66/66 67/67/67
f 63/63/63 64/64/64 65/65/65
f 61/61/61 62/62/62 63/63/63
f 59/59/59 60/60/60 61/61/61
f 57/57/57 58/58/58 59/59/59
f 55/55/55 56/56/56 57/57/57
f 53/53/53 54/54/54 55/55/55
f 51/51/51 52/52/52 53/53/53
f 49/49/49 50/50/50 51/51/51
f 47/47/47 48/48/48 49/49/49
f 45/45/45 46/46/46 47/47/47
f 43/43/43 44/44/44 45/45/45
f 41/41/41 42/42/42 43/43/43
f 38/38/38 40/40/40 41/41/41
f 106/106/106 105/105/105 104/104/104
f 104/104/104 103/103/103 102/102/102
f 102/102/102 101/101/101 100/100/100
f 100/100/100 99/99/99 98/98/98
f 98/98/98 97/97/97 96/96/96
f 96/96/96 95/95/95 94/94/94
f 94/94/94 93/93/93 92/92/92
f 92/92/92 91/91/91 90/90/90
f 90/90/90 89/89/89 88/88/88
f 88/88/88 87/87/87 86/86/86
f 86/86/86 85/85/85 84/84/84
f 84/84/84 83/83/83 82/82/82
f 82/82/82 81/81/81 80/80/80
f 80/80/80 79/79/79 78/78/78
f 78/78/78 73/73/73 77/77/77
f 72/72/72 74/74/74 76/76/76
f 74/74/74 72/72/72 75/75/75
f 75/75/75 73/73/73 74/74/74
f 72/72/72 71/71/71 70/70/70
f 70/70/70 69/69/69 68/68/68
f 68/68/68 67/67/67 66/66/66
f 66/66/66 65/65/65 64/64/64
f 64/64/64 63/63/63 62/62/62
f 62/62/62 61/61/61 60/60/60
f 60/60/60 59/59/59 58/58/58
f 58/58/58 57/57/57 56/56/56
f 56/56/56 55/55/55 54/54/54
f 54/54/54 53/53/53 52/52/52
f 52/52/52 51/51/51 50/50/50
f 50/50/50 49/49/49 48/48/48
f 48/48/48 47/47/47 46/46/46
f 46/46/46 45/45/45 44/44/44
f 44/44/44 43/43/43 42/42/42
f 42/42/42 41/41/41 40/40/40
f 40/40/40 38/38/38 39/39/39
f 39/39/39 109/109/109 108/108/108
f 1/1/1 36/36/36 37/37/37
f 1/1/1 35/35/35 36/36/36
f 1/1/1 34/34/34 35/35/35
f 1/1/1 33/33/33 34/34/34
f 1/1/1 32/32/32 33/33/33
f 1/1/1 31/31/31 32/32/32
f 1/1/1 30/30/30 31/31/31
f 1/1/1 29/29/29 30/30/30
f 1/1/1 28/28/28 29/29/29
f 1/1/1 27/27/27 28/28/28
f 1/1/1 26/26/26 27/27/27
f 1/1/1 25/25/25 26/26/26
f 1/1/1 24/24/24 25/25/25
f 1/1/1 23/23/23 24/24/24
f 1/1/1 22/22/22 23/23/23
f 1/1/1 21/21/21 22/22/22
f 1/1/1 20/20/20 21/21/21
f 1/1/1 19/19/19 20/20/20
f 1/1/1 18/18/18 19/19/19
f 1/1/1 17/17/17 18/18/18
f 1/1/1 16/16/16 17/17/17
f 1/1/1 15/15/15 16/16/16
f 1/1/1 14/14/14 15/15/15
f 1/1/1 13/13/13 14/14/14
f 1/1/1 12/12/12 13/13/13
f 1/1/1 11/11/11 12/12/12
f 1/1/1 10/10/10 11/11/11
f 1/1/1 9/9/9 10/10/10
f 1/1/1 8/8/8 9/9/9
f 1/1/1 7/7/7 8/8/8
f 1/1/1 6/6/6 7/7/7
f 1/1/1 5/5/5 6/6/6
f 1/1/1 4/4/4 5/5/5
f 1/1/1 3/3/3 4/4/4
f 1/1/1 37/37/37 2/2/2
f 3/3/3 1/1/1 2/2/2
f 110/110/110 146/146/146 111/111/111
f 110/110/110 112/112/112 113/113/113
f 110/110/110 113/113/113 114/114/114
f 110/110/110 114/114/114 115/115/115
f 110/110/110 115/115/115 116/116/116
f 110/110/110 116/116/116 117/117/117
f 110/110/110 117/117/117 118/118/118
f 110/110/110 118/118/118 119/119/119
f 110/110/110 119/119/119 120/120/120
f 110/110/110 120/120/120 121/121/121
f 110/110/110 121/121/121 122/122/122
f 110/110/110 122/122/122 123/123/123
f 110/110/110 123/123/123 124/124/124
f 110/110/110 124/124/124 125/125/125
f 110/110/110 125/125/125 126/126/126
f 110/110/110 126/126/126 127/127/127
f 110/110/110 127/127/127 128/128/128
f 110/110/110 128/128/128 129/129/129
f 110/110/110 129/129/129 130/130/130
f 110/110/110 130/130/130 131/131/131
f 110/110/110 131/131/131 132/132/132
f 110/110/110 132/132/132 133/133/133
f 110/110/110 133/133/133 134/134/134
f 110/110/110 134/134/134 135/135/135
f 110/110/110 135/135/135 136/136/136
f 110/110/110 136/136/136 137/137/137
f 110/110/110 137/137/137 138/138/138
f 110/110/110 138/138/138 139/139/139
f 110/110/110 139/139/139 140/140/140
f 110/110/110 140/140/140 141/141/141
f 110/110/110 141/141/141 142/142/142
f 110/110/110 142/142/142 143/143/143
f 110/110/110 143/143/143 144/144/144
f 110/110/110 144/144/144 145/145/145
f 110/110/110 145/145/145 146/146/146
f 112/112/112 110/110/110 111/111/111

